<?xml version="1.0" standalone="no"?>
<!DOCTYPE svg PUBLIC "-//W3C//DTD SVG 1.1//EN" "http://www.w3.org/Graphics/SVG/1.1/DTD/svg11.dtd" >
<svg>
<metadata>
Created by FontForge 20120731 at Thu Jul 14 16:28:17 2016
 By ,,,
Copyright (c) 2014 Monotype Imaging Inc. All rights reserved.
</metadata>
<defs>
<font id="BauerBodoniPro1W01-Bold" horiz-adv-x="556" >
  <font-face 
    font-family="BauerBodoniPro1W01-Bold"
    font-weight="700"
    font-stretch="normal"
    units-per-em="1000"
    panose-1="2 7 8 3 8 7 6 2 3 3"
    ascent="800"
    descent="-200"
    x-height="440"
    cap-height="704"
    bbox="-166 -265 1000 986"
    underline-thickness="50"
    underline-position="-75"
    unicode-range="U+000D-E308"
  />
<missing-glyph horiz-adv-x="512" 
d="M512 718v-718h-512v718h512zM462 50v617h-412v-617h412zM383 478q0 -60 -46 -103q-23 -22 -37 -37t-19 -23q-10 -16 -10 -81h-46l-2 20q0 56 15 82q16 27 55 64t39 74q0 36 -22.5 60.5t-53.5 24.5t-53.5 -22t-28.5 -73l-50 8q7 72 44 104.5t91 32.5t89 -35.5t35 -95.5z
M222 184h56v-67h-56v67z" />
    <glyph glyph-name=".notdef" horiz-adv-x="512" 
d="M512 718v-718h-512v718h512zM462 50v617h-412v-617h412zM383 478q0 -60 -46 -103q-23 -22 -37 -37t-19 -23q-10 -16 -10 -81h-46l-2 20q0 56 15 82q16 27 55 64t39 74q0 36 -22.5 60.5t-53.5 24.5t-53.5 -22t-28.5 -73l-50 8q7 72 44 104.5t91 32.5t89 -35.5t35 -95.5z
M222 184h56v-67h-56v67z" />
    <glyph glyph-name="glyph1" horiz-adv-x="0" 
 />
    <glyph glyph-name="glyph1" horiz-adv-x="0" 
 />
    <glyph glyph-name="uni000D" unicode="&#xd;" horiz-adv-x="278" 
 />
    <glyph glyph-name="space" unicode=" " horiz-adv-x="278" 
 />
    <glyph glyph-name="exclam" unicode="!" horiz-adv-x="334" 
d="M86 69q0 34 23.5 57.5t57.5 23.5t57.5 -23.5t23.5 -57.5t-23.5 -57.5t-57.5 -23.5t-57.5 23.5t-23.5 57.5zM155 181q-1 59 -3.5 111.5t-7.5 99.5q-6 63 -25 113t-48 85q35 19 61.5 49.5t34.5 72.5q8 -42 34.5 -73t61.5 -49q-31 -38 -48 -85.5t-24 -106.5
q-11 -95 -12 -217h-24z" />
    <glyph glyph-name="quotedbl" unicode="&#x22;" horiz-adv-x="500" 
d="M211 654q0 -7 -1.5 -26t-4 -43.5t-5 -52t-4.5 -52.5q-2 -16 -2.5 -29.5t-3.5 -23.5t-10 -15.5t-20 -5.5q-29 0 -32 31q-2 18 -5 50t-6 65.5t-5.5 62t-2.5 39.5q0 35 12.5 50.5t38.5 15.5q25 0 38 -15t13 -51zM391 654q0 -7 -1.5 -26t-4 -43.5t-5 -52t-4.5 -52.5
q-2 -16 -2.5 -29.5t-3.5 -23.5t-10 -15.5t-20 -5.5q-29 0 -32 31q-2 18 -5 50t-6 65.5t-5.5 62t-2.5 39.5q0 35 12.5 50.5t38.5 15.5q25 0 38 -15t13 -51z" />
    <glyph glyph-name="numbersign" unicode="#" 
d="M291 704l-29 -210h114l29 210h78l-29 -210h96v-72h-107l-18 -140h96v-72h-106l-30 -210h-77l29 210h-114l-29 -210h-78l29 210h-96v72h107l18 140h-96v72h106l30 210h77zM234 282h113l18 140h-113z" />
    <glyph glyph-name="dollar" unicode="$" 
d="M259 781h30v-72q23 -4 42.5 -11t38.5 -18q39 -22 59 -22q19 0 25.5 11t6.5 28h18v-225h-18q-22 97 -67 152t-105 66v-237q75 -16 118.5 -34t68.5 -41t37.5 -59.5t12.5 -94.5q0 -45 -16 -89.5t-48 -77.5q-32 -32 -73 -48.5t-95 -16.5h-5v-106h-30v108q-21 3 -45.5 10.5
t-50.5 17.5t-44.5 16t-30.5 6q-20 0 -28.5 -11t-8.5 -26h-18v266h18q12 -56 32.5 -101t48.5 -80q56 -69 127 -80v274q-142 31 -185 83q-21 25 -32.5 56t-11.5 80q0 46 15.5 84.5t44.5 65.5t70.5 42t93.5 15h5v69zM259 694h-9q-24 0 -47.5 -8.5t-42 -24t-29.5 -37.5t-11 -50
q0 -46 31.5 -72.5t107.5 -40.5v233zM289 10q64 2 102.5 37.5t38.5 95.5q0 52 -31 83.5t-110 51.5v-268z" />
    <glyph glyph-name="percent" unicode="%" horiz-adv-x="1000" 
d="M706 720h45l-463 -736h-45zM426 528q0 -88 -38 -135.5t-107 -47.5t-107 47.5t-38 135.5t37 136t108 48q70 0 107.5 -48t37.5 -136zM336 588q0 51 -12.5 81.5t-42.5 30.5q-27 0 -41 -28t-14 -92v-108q0 -54 13 -84.5t42 -30.5q27 0 41 28t14 91v112zM864 175
q0 -88 -38 -135.5t-107 -47.5t-107 47.5t-38 135.5t37 136t108 48q70 0 107.5 -48t37.5 -136zM774 235q0 51 -12.5 81.5t-42.5 30.5q-27 0 -41 -28t-14 -92v-108q0 -54 13 -84.5t42 -30.5q27 0 41 28t14 91v112z" />
    <glyph glyph-name="ampersand" unicode="&#x26;" horiz-adv-x="834" 
d="M471 567q0 -39 -20 -73t-79 -74l131 -175q21 36 40.5 60t38.5 38.5t38.5 20.5t40.5 6q32 0 54.5 -22.5t22.5 -55.5q0 -31 -17 -54.5t-50 -23.5q-30 0 -47.5 18t-17.5 43q0 9 1.5 15.5t1.5 12.5q0 13 -18 13q-7 0 -16.5 -8t-23.5 -27q-9 -12 -17.5 -26t-17.5 -27
q57 -72 97 -110t70 -38q18 0 32 7t24 18.5t17 26.5t13 30l13 -6q-25 -85 -69 -128.5t-102 -43.5q-22 0 -42 7t-40.5 22t-43.5 39t-51 58q-26 -32 -50 -55.5t-48 -39.5t-50 -23.5t-56 -7.5q-34 0 -64 15.5t-52 40.5t-34.5 57t-12.5 66q0 26 9 49.5t30 47.5t56 50t86 57
q-26 36 -47.5 77.5t-21.5 87.5q0 33 13 60t36 47t53.5 31t66.5 11q60 0 91.5 -29.5t31.5 -84.5zM359 435q43 27 65.5 58t22.5 66q0 47 -22 72.5t-67 25.5q-32 0 -51.5 -20t-19.5 -51q0 -12 3.5 -24.5t12 -30t22 -40.5t34.5 -56zM335 68q29 0 51 17.5t36 40.5l-163 225
q-11 -9 -22 -16t-28 -22q-12 -11 -20 -27.5t-8 -46.5q0 -25 14 -55t36.5 -55.5t50 -43t53.5 -17.5z" />
    <glyph glyph-name="quotesingle" unicode="'" horiz-adv-x="278" 
d="M190 654q0 -7 -1.5 -26t-4 -43.5t-5 -52t-4.5 -52.5q-2 -16 -2.5 -29.5t-3.5 -23.5t-10 -15.5t-20 -5.5q-29 0 -32 31q-2 18 -5 50t-6 65.5t-5.5 62t-2.5 39.5q0 35 12.5 50.5t38.5 15.5q25 0 38 -15t13 -51z" />
    <glyph glyph-name="parenleft" unicode="(" horiz-adv-x="333" 
d="M326 703q-40 -44 -71 -97t-52 -112t-32 -122.5t-11 -126.5t11 -126.5t32 -122.5t52 -112.5t71 -96.5l-37 -38q-91 98 -140 226.5t-49 269.5q0 138 48 267.5t141 228.5z" />
    <glyph glyph-name="parenright" unicode=")" horiz-adv-x="333" 
d="M44 741q91 -98 140 -226.5t49 -269.5q0 -139 -48 -268t-141 -228l-37 38q40 44 71 97t52 111.5t32 121.5t11 128q0 64 -11 127.5t-32.5 122.5t-52.5 112t-70 96z" />
    <glyph glyph-name="asterisk" unicode="*" 
d="M326 642q4 0 11.5 4t12.5 4q13 0 13 -12q0 -6 -10 -14t-23.5 -24.5t-27.5 -44.5t-23 -76q42 11 69.5 27.5t44.5 31.5t25.5 26t13.5 11q11 0 11 -9q0 -5 -2.5 -11.5t-2.5 -14.5q0 -13 13 -13q6 0 13.5 1t19.5 1q11 0 13.5 -3.5t2.5 -8.5q0 -8 -7.5 -12t-16.5 -7.5
t-16.5 -8t-7.5 -12.5q0 -11 7 -19t7 -16q0 -5 -2 -8t-10 -3q-3 0 -12.5 5.5t-25.5 12.5t-38.5 12.5t-50.5 5.5q-25 0 -45 -4q22 -36 46.5 -56.5t45 -32t34 -17.5t13.5 -14q0 -6 -5.5 -8.5t-12.5 -4t-12.5 -3t-5.5 -6.5t2.5 -18t2.5 -24q0 -19 -10 -19q-8 0 -15 5.5t-13 12.5
t-11 12.5t-10 5.5q-4 0 -8.5 -3.5t-9 -8t-8.5 -8t-7 -3.5q-9 0 -9 13q0 10 2.5 27.5t2.5 39.5t-5.5 48.5t-22.5 54.5q-21 -24 -32.5 -45t-17.5 -39.5t-7.5 -33.5l-2.5 -25q-2 -24 -11 -24q-7 0 -10.5 4.5t-6 9.5t-5.5 9.5t-8 4.5q-6 0 -12.5 -3.5t-13.5 -7.5t-13 -7.5
t-11 -3.5q-6 0 -8.5 5t-2.5 8t3 9t7 13.5t7 15.5t3 14q0 4 -5 6.5t-11 5t-11 5.5t-5 9q0 12 28 12q27 0 65.5 19t69.5 51q-20 8 -43.5 14t-53.5 6q-29 0 -47 -4.5t-28 -4.5q-12 0 -12 13q0 6 10 13t10 18q0 6 -5.5 11.5t-12 10.5t-12 10t-5.5 10q0 9 6 11t13 2q4 0 16 -3.5
t21 -3.5q11 0 11 16v7q0 17 14 17q10 0 22 -31q11 -30 39 -56.5t65 -40.5l2 29q0 31 -7 55t-15.5 41t-15.5 28t-7 16q0 12 10 12q8 0 14 -5t15 -5q7 0 11.5 8t8.5 17t8.5 17t11.5 8q10 0 11.5 -9l3.5 -21q2 -11 4.5 -21.5t7.5 -10.5z" />
    <glyph glyph-name="plus" unicode="+" horiz-adv-x="600" 
d="M342 506v-211h211v-84h-211v-211h-84v211h-211v84h211v211h84z" />
    <glyph glyph-name="comma" unicode="," horiz-adv-x="278" 
d="M226 38q0 -78 -39.5 -133t-114.5 -69v17q60 13 94 57t36 108h-2q-27 -30 -64 -30q-12 0 -26 4t-25.5 14t-19 25t-7.5 38q0 32 22.5 56.5t57.5 24.5q41 0 64.5 -29t23.5 -83z" />
    <glyph glyph-name="hyphen" unicode="-" horiz-adv-x="444" 
d="M91 299q42 -2 79.5 -3t76.5 -1q36 0 71 1t72 3l-37 -92q-52 2 -91 3t-73 1q-36 0 -68 -1.5t-67 -2.5z" />
    <glyph glyph-name="period" unicode="." horiz-adv-x="278" 
d="M220 69q0 -34 -23.5 -57.5t-57.5 -23.5t-57.5 23.5t-23.5 57.5t23.5 57.5t57.5 23.5t57.5 -23.5t23.5 -57.5z" />
    <glyph glyph-name="slash" unicode="/" horiz-adv-x="389" 
d="M375 720l-276 -736h-85l276 736h85z" />
    <glyph glyph-name="zero" unicode="0" 
d="M519 352q0 -165 -73 -262q-74 -98 -168 -98q-95 0 -168 97t-73 263q0 165 73 262q74 98 168 98t168 -98q73 -97 73 -262zM181 227q0 -137 24 -177q25 -40 73 -40q49 0 73 40t24 177v250q0 136 -24 177q-24 40 -74 40q-48 0 -72 -40q-24 -41 -24 -177v-250z" />
    <glyph glyph-name="one" unicode="1" 
d="M378 704v-686h92v-18h-337v18h101v515q0 20 -6 29.5t-25 9.5t-54 -20.5t-81 -43.5l-9 19q109 63 169.5 107t80.5 70h69z" />
    <glyph glyph-name="two" unicode="2" 
d="M503 494q0 -83 -39 -136t-117 -94q-39 -20 -68 -35t-53 -29.5t-45 -30t-43 -37.5h343l17 97h16q-14 -57 -19.5 -114t-7.5 -115h-459q13 32 28 57.5t33 47.5t39 42.5t45 43.5q30 28 63 57.5t60.5 65t45 79.5t17.5 101q0 105 -34 152.5t-103 47.5q-24 0 -49 -9t-45.5 -24
t-33.5 -35.5t-13 -43.5q0 -25 26 -25q5 0 13 1t17 1q29 0 47 -18t18 -46q0 -35 -23.5 -51.5t-55.5 -16.5q-43 0 -66.5 28.5t-23.5 79.5q0 40 16.5 73t45 56t66.5 35.5t80 12.5q53 0 100.5 -15t83.5 -43t57 -68.5t21 -91.5z" />
    <glyph glyph-name="three" unicode="3" 
d="M475 552q0 -34 -14.5 -61.5t-41 -47.5t-63.5 -32.5t-82 -15.5v-2q53 0 95 -14t71.5 -39.5t45.5 -61t16 -77.5q0 -51 -20.5 -90t-56 -65.5t-84.5 -40t-106 -13.5q-106 0 -156.5 37t-50.5 107q0 35 21 62t59 27q31 0 51.5 -21t20.5 -51q0 -38 -21 -55t-45 -17h-9
q-17 0 -17 -14q0 -15 12 -25.5t31 -17.5t42.5 -10.5t45.5 -3.5q42 0 72.5 14t47.5 48q11 23 15 56t4 80q0 52 -8.5 85.5t-26.5 53t-47 27t-70 7.5h-80v18h69q20 0 39.5 2.5t36 9t30 18.5t22.5 32q14 32 14 96q0 67 -21.5 102t-80.5 35q-14 0 -33.5 -4.5t-37 -12t-29.5 -18
t-12 -22.5q0 -10 8.5 -12.5t22.5 -4.5q19 -3 37 -17t18 -48q0 -33 -19.5 -52.5t-51.5 -19.5q-33 0 -53 24.5t-20 58.5q0 36 15.5 63.5t42 46t60.5 27.5t71 9q40 0 79.5 -11t71 -32t51 -50.5t19.5 -66.5z" />
    <glyph glyph-name="four" unicode="4" 
d="M436 704v-405h80v-107h-80v-174h96v-18h-326v18h98v174h-280v44l345 468h67zM302 576l-199 -276h201v276h-2z" />
    <glyph glyph-name="five" unicode="5" 
d="M414 682q28 0 38 25l12 -5q-3 -73 -42 -100.5t-111 -27.5q-20 0 -41 3t-41 6t-36.5 6t-27.5 3q-7 0 -13.5 -1t-17.5 -4v-14q0 -14 -1.5 -35t-4 -44t-6.5 -44t-8 -35l2 -2q20 17 55.5 28t73.5 11q53 0 101.5 -15.5t85 -44t58.5 -69.5t22 -92q0 -54 -22.5 -98t-61.5 -75.5
t-91 -48.5t-110 -17q-41 0 -77 11t-63 31t-43 47.5t-16 60.5q0 40 21 65.5t54 25.5q34 0 51.5 -19.5t17.5 -47.5q0 -30 -18.5 -47.5t-41.5 -17.5q-24 0 -24 -26q0 -10 11.5 -21.5t29.5 -21t41 -16t46 -6.5q72 0 109 49.5t37 168.5q0 41 -9 77.5t-27 63.5t-44.5 43t-60.5 16
q-46 0 -79 -20t-50 -65l-14 3q17 57 27.5 117t10.5 109q0 8 -0.5 21.5t-2 31t-3.5 37t-5 38.5q25 6 54 9t72 3q32 0 61.5 -4.5t54 -10.5t42 -10.5t25.5 -4.5z" />
    <glyph glyph-name="six" unicode="6" 
d="M474 694q-45 -2 -80.5 -11.5t-67.5 -27.5q-35 -20 -63.5 -50.5t-45.5 -78.5q-10 -29 -15.5 -66t-8.5 -85h2q16 38 51.5 54t76.5 16q40 0 75 -16t61 -44.5t41 -67.5t15 -85q0 -54 -19.5 -98.5t-51.5 -76t-74 -48.5t-87 -17q-53 0 -97.5 20.5t-76.5 57t-50 85.5t-18 106
q0 89 36 170.5t96 144t138 99.5t163 37v-18zM281 10q26 0 44 9t29.5 31t17 59.5t5.5 94.5t-4 97.5t-14.5 65.5t-28.5 36.5t-45 11.5q-43 0 -71.5 -43t-28.5 -134q0 -54 3 -92t11 -64q12 -42 33 -57t49 -15z" />
    <glyph glyph-name="seven" unicode="7" 
d="M523 704v-30q-45 -72 -88.5 -149t-86.5 -161q-84 -167 -84 -222q0 -18 28 -18q26 0 42 -17t16 -46q0 -32 -17.5 -50.5t-51.5 -18.5q-20 0 -33.5 6.5t-21.5 17.5t-12 25t-4 29q0 32 21 89.5t63 149.5t64.5 157.5t25.5 105.5h-313l-20 -75h-18q16 51 23 102t12 105h455z
" />
    <glyph glyph-name="eight" unicode="8" 
d="M489 552q0 -64 -49 -109t-134 -64v-2q107 -21 159 -69.5t52 -120.5q0 -45 -19 -81.5t-52 -61.5t-76.5 -38.5t-92.5 -13.5q-45 0 -88 12.5t-76 37.5t-53.5 61t-20.5 84q0 72 52 120.5t159 69.5v2q-85 19 -134 64.5t-49 108.5q0 37 17 67t45.5 50.5t67 31.5t81.5 11t81 -11
t67 -31.5t46 -50t17 -67.5zM278 385q46 19 62.5 45.5t16.5 68.5v103q0 45 -20.5 68.5t-59.5 23.5q-37 0 -57.5 -24t-20.5 -69v-83q0 -26 2 -45.5t10 -35t24 -28t43 -24.5zM373 231q0 21 -5.5 42t-17.5 40t-30 33t-42 21q-24 -7 -42 -21.5t-30 -33t-17.5 -40t-5.5 -42.5v-100
q0 -52 23 -86t72 -34t72 34t23 86v101z" />
    <glyph glyph-name="nine" unicode="9" 
d="M515 443q0 -92 -37 -173.5t-97.5 -143.5t-138 -98t-157.5 -36h-3v18q39 2 75 10.5t68 25.5q41 22 70 54.5t46 83.5q18 55 22 145h-2q-16 -38 -51.5 -54t-76.5 -16t-76 16.5t-61 45t-40.5 67.5t-14.5 84q0 54 19.5 98t51.5 75.5t74 49t87 17.5q53 0 97.5 -21t76.5 -57
t50 -85t18 -106zM271 289q48 0 74 47.5t26 132.5q0 53 -3 90t-11 63q-7 24 -16.5 38t-21 21.5t-23 10t-22.5 2.5q-24 0 -41.5 -8t-29.5 -29.5t-18 -59t-6 -96.5q0 -58 4.5 -98.5t15 -65.5t28 -36.5t44.5 -11.5z" />
    <glyph glyph-name="colon" unicode=":" horiz-adv-x="278" 
d="M220 359q0 -34 -23.5 -57.5t-57.5 -23.5t-57.5 23.5t-23.5 57.5t23.5 57.5t57.5 23.5t57.5 -23.5t23.5 -57.5zM220 69q0 -34 -23.5 -57.5t-57.5 -23.5t-57.5 23.5t-23.5 57.5t23.5 57.5t57.5 23.5t57.5 -23.5t23.5 -57.5z" />
    <glyph glyph-name="semicolon" unicode=";" horiz-adv-x="278" 
d="M220 359q0 -34 -24 -57.5t-57 -23.5q-34 0 -57.5 23.5t-23.5 57.5t23.5 57.5t57.5 23.5t57.5 -23.5t23.5 -57.5zM226 38q0 -78 -39.5 -133t-114.5 -69v17q60 13 94 57t36 108h-2q-27 -30 -64 -30q-12 0 -26 4t-25.5 14t-19 25t-7.5 38q0 32 22.5 56.5t57.5 24.5
q41 0 64.5 -29t23.5 -83z" />
    <glyph glyph-name="less" unicode="&#x3c;" horiz-adv-x="600" 
d="M553 426l-393 -173l393 -173v-88l-506 223v76l506 223v-88z" />
    <glyph glyph-name="equal" unicode="=" horiz-adv-x="600" 
d="M553 397v-84h-506v84h506zM553 193v-84h-506v84h506z" />
    <glyph glyph-name="greater" unicode="&#x3e;" horiz-adv-x="600" 
d="M47 514l506 -223v-76l-506 -223v88l393 173l-393 173v88z" />
    <glyph glyph-name="question" unicode="?" 
d="M148 69q0 34 23.5 57.5t57.5 23.5t57.5 -23.5t23.5 -57.5t-23.5 -57.5t-57.5 -23.5t-57.5 23.5t-23.5 57.5zM215 178v156q0 37 8 54t18 26q20 18 37.5 33t37.5 32q27 24 42.5 50.5t15.5 52.5q0 51 -33.5 81.5t-82.5 30.5q-33 0 -60 -14t-27 -35q0 -15 24 -15h7
q25 0 43.5 -19t18.5 -51q0 -33 -23 -50.5t-54 -17.5q-38 0 -60 27t-22 64q0 29 12.5 53t35.5 41t54 26t69 9q39 0 71.5 -13.5t56 -38t36 -58.5t12.5 -74q0 -57 -29 -102t-89 -94q-29 -24 -48.5 -42t-31 -33t-16.5 -29.5t-5 -31.5v-18h-18z" />
    <glyph glyph-name="at" unicode="@" horiz-adv-x="800" 
d="M764 411q0 -46 -15 -92t-41 -83t-61 -60t-75 -23q-19 0 -34.5 7t-27.5 18t-19 24.5t-9 25.5h-2q-9 -14 -23 -27.5t-30.5 -24t-34 -16.5t-33.5 -6q-45 0 -72.5 33.5t-27.5 94.5q0 31 13 75t38.5 84t62.5 68.5t84 28.5q22 0 43.5 -10.5t37.5 -41.5h2l9 36h76l-62 -247
q-3 -11 -4.5 -19.5t-1.5 -16.5q0 -19 9.5 -31.5t26.5 -12.5q24 0 46 18.5t39.5 49t27.5 69t10 78.5q0 46 -18.5 92t-54.5 82.5t-88 59t-119 22.5q-66 0 -119.5 -23t-92 -66t-59.5 -105t-21 -140q0 -61 22 -113.5t60.5 -91.5t90.5 -61t113 -22q65 0 113 12t94 38l9 -36
q-48 -36 -110 -55t-134 -19q-83 0 -150.5 28t-115.5 75.5t-74 111t-26 135.5q0 84 29.5 155t80.5 122.5t120 80t148 28.5q76 0 140.5 -23.5t111 -65t72.5 -98t26 -122.5zM400 208q27 0 49 22t37.5 54t23.5 68t8 65q0 33 -9.5 50t-32.5 17q-20 0 -43 -14t-43 -39t-33.5 -60
t-13.5 -78q0 -45 17.5 -65t39.5 -20z" />
    <glyph glyph-name="A" unicode="A" horiz-adv-x="667" 
d="M324 720h15l268 -702h49v-18h-298v18h80l-73 208h-194q-7 -20 -15.5 -45.5t-17.5 -51.5q-8 -24 -15 -43.5t-7 -30.5q0 -37 50 -37h26v-18h-181v18h9q26 0 43.5 15t26.5 40l15 41zM268 497l-89 -253h178l-87 253h-2z" />
    <glyph glyph-name="B" unicode="B" horiz-adv-x="667" 
d="M353 704q48 0 90.5 -10.5t74.5 -31.5t51 -52t19 -72q0 -66 -54.5 -108.5t-150.5 -51.5v-2q57 0 102 -13t77 -37t49 -58t17 -76q0 -45 -20 -80.5t-57 -60t-88 -38t-113 -13.5h-314v18h67v668h-67v18h317zM259 380h53q18 0 40 6t41 22t32 43.5t13 70.5q0 49 -9.5 80.5
t-26.5 50t-39.5 26t-49.5 7.5h-54v-306zM259 18h43q87 0 122.5 45t35.5 128q0 82 -37 126.5t-100 44.5h-64v-344z" />
    <glyph glyph-name="C" unicode="C" horiz-adv-x="667" 
d="M554 669q31 0 33 30h18v-236h-18q-8 47 -28.5 90t-49 76t-64 53t-73.5 20q-84 0 -122.5 -86t-38.5 -264q0 -95 9 -161.5t28.5 -108.5t49 -61t71.5 -19q66 0 119 42t83 113q8 20 13 42t9 46h15v-245h-15q-3 12 -12 26.5t-25 14.5q-12 0 -27.5 -9t-38 -19.5t-54.5 -19.5
t-77 -9q-71 0 -129.5 29t-100 78t-64 113.5t-22.5 135.5q0 72 24 140t67.5 121.5t104 86t132.5 32.5q28 0 54 -8t49 -17.5t43 -17.5t37 -8z" />
    <glyph glyph-name="D" unicode="D" horiz-adv-x="778" 
d="M384 704q75 0 139.5 -24.5t111.5 -70.5t73.5 -112t26.5 -149q0 -41 -9.5 -84t-29.5 -84t-51 -76t-74 -59q-38 -21 -83 -33t-106 -12h-347v18h81v668h-81v18h349zM359 18q21 0 43.5 3.5t43 11.5t38.5 22t32 34q12 18 21.5 40t16 52.5t10 73t3.5 101.5q0 60 -3.5 103.5
t-9.5 74.5t-15 52t-21 37q-47 63 -146 63h-100v-668h87z" />
    <glyph glyph-name="E" unicode="E" horiz-adv-x="667" 
d="M581 704v-199h-18v10q0 42 -14.5 73.5t-39.5 53.5t-58.5 33t-70.5 11h-121v-306h70q38 0 62 19t32 64q2 14 3 27.5t1 32.5h18v-316h-18v19q0 35 -8 61t-21.5 42.5t-31 24.5t-36.5 8h-71v-344h148q84 0 134 52t50 145v10h18v-225h-587v18h81v668h-81v18h559z" />
    <glyph glyph-name="F" unicode="F" horiz-adv-x="611" 
d="M597 704v-199h-18v13q0 40 -16.5 71.5t-45 53t-66.5 32.5t-81 11h-106v-306h51q30 0 54.5 6t42 20.5t27 39t9.5 62.5v15h18v-316h-18v21.5t-1 19.5q-5 62 -39.5 88t-101.5 26h-42v-344h100v-18h-337v18h81v668h-81v18h570z" />
    <glyph glyph-name="G" unicode="G" horiz-adv-x="722" 
d="M559 667q30 0 30 32h18v-230h-18q-7 55 -26.5 98t-48 73t-65 46t-77.5 16q-80 0 -120.5 -86.5t-40.5 -264.5q0 -84 6.5 -147.5t23.5 -108.5q17 -47 46.5 -70t86.5 -23q51 0 84 26.5t33 78.5v113h-74v18h282v-18h-58v-151q-45 -36 -109 -60.5t-154 -24.5q-71 0 -132 27
t-106 75t-71 113t-26 141q0 82 24.5 151.5t68 120.5t102.5 79.5t127 28.5q34 0 64.5 -8.5t56 -18t44.5 -18t29 -8.5z" />
    <glyph glyph-name="H" unicode="H" horiz-adv-x="778" 
d="M340 704v-18h-81v-306h260v306h-81v18h318v-18h-81v-668h81v-18h-318v18h81v344h-260v-344h81v-18h-318v18h81v668h-81v18h318z" />
    <glyph glyph-name="I" unicode="I" horiz-adv-x="390" 
d="M354 704v-18h-81v-668h81v-18h-318v18h81v668h-81v18h318z" />
    <glyph glyph-name="J" unicode="J" horiz-adv-x="444" 
d="M408 704v-18h-81v-602q0 -32 -14.5 -62.5t-39.5 -54.5t-59 -38.5t-74 -14.5q-30 0 -54.5 8.5t-42 22.5t-27.5 31.5t-10 36.5q0 30 18.5 53t50.5 23q28 0 45.5 -17.5t17.5 -44.5q0 -22 -9 -33.5t-20 -17.5t-20 -9.5t-9 -10.5q0 -11 16.5 -17.5t36.5 -6.5q38 0 54 22t16 64
q0 23 -5 40.5t-11 33.5t-11 33.5t-5 40.5v520h-100v18h337z" />
    <glyph glyph-name="K" unicode="K" horiz-adv-x="778" 
d="M364 704v-18h-91v-311l230 230q16 16 29.5 30.5t13.5 28.5q0 9 -10.5 15.5t-44.5 6.5h-15v18h256v-18h-24q-51 0 -91.5 -22t-74.5 -55l-143 -142l295 -449h72v-18h-335v18h78l-221 343l-15 -14v-329h85v-18h-322v18h81v668h-81v18h328z" />
    <glyph glyph-name="L" unicode="L" horiz-adv-x="667" 
d="M354 704v-18h-90v-668h117q48 0 87.5 9.5t68 32t44 60.5t15.5 95v25h18v-240h-587v18h81v668h-81v18h327z" />
    <glyph glyph-name="M" unicode="M" horiz-adv-x="889" 
d="M283 704l166 -483h2l169 483h241v-18h-75v-668h75v-18h-317v18h86v650h-2l-233 -668h-27l-239 680h-2v-570q0 -52 14.5 -72t58.5 -20h16v-18h-194v18h4q38 0 57.5 19t19.5 64v585h-76v18h256z" />
    <glyph glyph-name="N" unicode="N" horiz-adv-x="722" 
d="M225 704l377 -485h2v409q0 26 -15 42t-57 16h-15v18h189v-18h-16q-22 0 -42 -13t-20 -43v-642h-42l-466 608h-2v-513q0 -36 15.5 -50.5t60.5 -14.5h11v-18h-189v18h18q33 0 46.5 18.5t13.5 51.5v539l-44 59h-31v18h206z" />
    <glyph glyph-name="O" unicode="O" horiz-adv-x="722" 
d="M679 348q0 -71 -25.5 -137t-69 -116.5t-101.5 -80.5t-124 -30t-124 31.5t-100.5 82t-67 114.5t-24.5 130q0 89 26.5 159.5t70.5 119t101 74t118 25.5q70 0 128.5 -29t101 -79t66.5 -118t24 -146zM362 2q42 0 70.5 17.5t46 58t25 107t7.5 165.5q0 96 -10.5 176.5
t-39.5 125.5q-17 25 -39.5 37.5t-60.5 12.5q-47 0 -72.5 -20t-42.5 -59q-20 -45 -27.5 -114t-7.5 -158q0 -97 7.5 -163.5t24.5 -108t46 -59.5t73 -18z" />
    <glyph glyph-name="P" unicode="P" horiz-adv-x="667" 
d="M389 704q124 0 188 -47t64 -141q0 -42 -19 -78.5t-54.5 -63.5t-85.5 -42.5t-112 -15.5q-27 0 -54 1t-52 3v-302h99v-18h-336v18h81v668h-81v18h362zM264 339q11 -3 21 -4t22 -1q87 0 126.5 42t39.5 135q0 75 -13 113q-14 38 -42.5 50t-73.5 12h-80v-347z" />
    <glyph glyph-name="Q" unicode="Q" horiz-adv-x="722" 
d="M679 348q0 -61 -18.5 -118.5t-52 -105t-80 -82t-101.5 -48.5v-97q0 -41 18 -66t57 -25q15 0 40.5 6t43.5 17l7 -17q-32 -17 -64.5 -23.5t-78.5 -6.5q-31 0 -60 7.5t-51.5 22t-36 35.5t-13.5 48v99q-53 16 -98 50.5t-78 82t-51.5 104.5t-18.5 117q0 78 24 146t66.5 118.5
t100.5 79t126 28.5q69 0 127.5 -29t101 -79t66.5 -118t24 -146zM360 2q43 0 72 17.5t46.5 58.5t25 107.5t7.5 165.5q0 79 -5.5 140t-21.5 110t-43 75t-82 26q-35 0 -57 -12t-39 -35q-15 -21 -25 -54t-16 -73t-8.5 -85.5t-2.5 -91.5q0 -97 7.5 -163.5t24.5 -108t46 -59.5
t71 -18z" />
    <glyph glyph-name="R" unicode="R" horiz-adv-x="722" 
d="M345 704q137 0 210.5 -40.5t73.5 -124.5q0 -70 -60.5 -115t-174.5 -53v-2q105 -9 163 -52t58 -130q0 -29 1 -51.5t3 -39.5q4 -44 15 -60t37 -16q8 0 18 4t18 9l7 -15q-26 -20 -59.5 -27t-62.5 -7q-66 0 -99.5 41.5t-33.5 142.5q0 59 -7 96t-24 57.5t-46 28t-74 7.5h-44
v-339h84v-18h-321v18h81v668h-81v18h318zM264 375h35q48 0 79.5 8t49.5 27t25.5 49.5t7.5 75.5q0 47 -5 76.5t-18.5 46t-36.5 22.5t-59 6h-78v-311z" />
    <glyph glyph-name="S" unicode="S" horiz-adv-x="611" 
d="M456 666q17 0 24.5 10.5t7.5 28.5h18v-225h-18q-26 109 -78.5 165.5t-128.5 56.5q-60 0 -96.5 -35.5t-36.5 -92.5q0 -53 39 -78.5t113 -40.5q45 -9 79.5 -18t61.5 -21q64 -29 88 -74t24 -106q0 -59 -16 -105.5t-46 -79t-72.5 -50t-94.5 -17.5q-31 0 -62.5 8t-59.5 18
t-51 18t-36 8q-20 0 -28.5 -11t-8.5 -26h-18v266h18q13 -59 35.5 -107t53 -83t67.5 -54t79 -19q66 0 105 37.5t39 103.5q0 53 -33 85t-116 52q-69 17 -111.5 31.5t-70.5 36.5q-38 29 -53 69t-15 88q0 47 15 86.5t43.5 68t69 44.5t92.5 16q37 0 63.5 -8.5t46.5 -18.5
t35.5 -18.5t32.5 -8.5z" />
    <glyph glyph-name="T" unicode="T" horiz-adv-x="668" 
d="M649 704v-219h-18q-12 100 -52.5 150.5t-122.5 50.5h-44v-668h93v-18h-342v18h93v668h-41q-81 0 -123 -47.5t-55 -153.5h-18v219h630z" />
    <glyph glyph-name="U" unicode="U" horiz-adv-x="722" 
d="M331 704v-18h-81v-446q0 -117 42.5 -168.5t131.5 -51.5q40 0 73 14t57 39.5t37 62.5t13 83v387q0 47 -17 63.5t-53 16.5h-26v18h198v-18h-24q-26 0 -40 -17.5t-14 -62.5v-380q0 -112 -65 -177t-199 -65q-64 0 -114 18t-84.5 50.5t-53 77.5t-18.5 99v457h-78v18h315z" />
    <glyph glyph-name="V" unicode="V" horiz-adv-x="722" 
d="M347 704v-18h-97l186 -500q38 103 64.5 174.5t44 119t27.5 75.5t15 45t6.5 27t1.5 22q0 19 -12 28t-40 9h-23v18h191v-18h-15q-13 0 -23.5 -4.5t-20.5 -17t-21.5 -36t-25.5 -60.5l-220 -584h-40l-263 702h-71v18h336z" />
    <glyph glyph-name="W" unicode="W" horiz-adv-x="1000" 
d="M308 704v-18h-60l156 -470h2l86 269l-65 201h-72v18h310v-18h-78l152 -473h2l114 359q9 29 13 46t4 26q0 20 -16 31t-54 11h-5v18h184v-18h-6q-28 0 -50 -23t-40 -78l-201 -601h-24l-155 468h-2l-155 -468h-25l-238 702h-66v18h289z" />
    <glyph glyph-name="X" unicode="X" horiz-adv-x="778" 
d="M360 704v-18h-78l132 -210l90 130q27 39 27 58q0 11 -12.5 16.5t-46.5 5.5h-8v18h203v-18h-11q-18 0 -33.5 -4t-30.5 -14.5t-31 -29t-36 -47.5l-97 -139l272 -434h64v-18h-339v18h90l-184 295l-148 -219q-14 -20 -17.5 -30t-3.5 -17q0 -11 11.5 -20t50.5 -9h21v-18h-231
v18h18q14 0 31.5 4.5t38.5 20.5q14 11 29.5 30t33.5 45l153 216l-220 352h-72v18h334z" />
    <glyph glyph-name="Y" unicode="Y" horiz-adv-x="667" 
d="M318 704v-18h-72l165 -378q32 73 54.5 124.5t38 86.5t25 56.5t14 35t6 21.5t1.5 15q0 20 -13 29.5t-49 9.5h-11v18h180v-18h-7q-27 0 -44.5 -18.5t-33.5 -53.5l-146 -327v-269h77v-18h-310v18h77v227l-194 441h-66v18h308z" />
    <glyph glyph-name="Z" unicode="Z" horiz-adv-x="667" 
d="M605 704v-18l-405 -668h140q74 0 130 18t88 68q16 24 25 57t14 76h21l-18 -237h-580v18l407 668h-158q-80 0 -132 -45.5t-63 -153.5h-19l14 217h536z" />
    <glyph glyph-name="bracketleft" unicode="[" horiz-adv-x="333" 
d="M319 729v-36h-129v-896h129v-36h-189v968h189z" />
    <glyph glyph-name="backslash" unicode="\" horiz-adv-x="389" 
d="M99 720l276 -736h-85l-276 736h85z" />
    <glyph glyph-name="bracketright" unicode="]" horiz-adv-x="333" 
d="M203 729v-968h-189v36h129v896h-129v36h189z" />
    <glyph glyph-name="asciicircum" unicode="^" horiz-adv-x="600" 
d="M354 704l178 -365h-89l-129 275l-129 -275h-89l178 365h80z" />
    <glyph glyph-name="underscore" unicode="_" horiz-adv-x="500" 
d="M500 -75v-50h-500v50h500z" />
    <glyph glyph-name="grave" unicode="`" horiz-adv-x="278" 
d="M168 516l-131 139q-11 12 -17.5 23.5t-6.5 16.5q0 11 8.5 18t29.5 7q18 0 25 -5t13 -14q5 -8 28 -55t64 -130h-13z" />
    <glyph glyph-name="a" unicode="a" 
d="M460 77q0 -18 4.5 -32.5t18.5 -14.5q18 0 26.5 17.5t8.5 38.5h18q0 -45 -29 -71.5t-78 -26.5q-34 0 -60 15.5t-40 47.5q-15 -29 -53 -46t-81 -17q-34 0 -62.5 8.5t-49 24t-32 38t-11.5 51.5q0 120 186 135l102 8v88q0 55 -20 74t-65 19q-17 0 -33.5 -2t-29 -6t-20.5 -9.5
t-8 -12.5q0 -6 8 -10t17.5 -9t17.5 -15t8 -28q0 -26 -16 -43t-45 -17q-34 0 -49.5 19.5t-15.5 45.5q0 21 13 40t36 33.5t54.5 23t69.5 8.5q106 0 158 -37t52 -103v-235zM249 18q19 0 33.5 9.5t24.5 24.5t15.5 33t5.5 35v115l-71 -7q-20 -2 -35 -6t-24.5 -14t-14.5 -27
t-5 -45q0 -17 1 -33t3 -27q7 -32 24 -45t43 -13z" />
    <glyph glyph-name="b" unicode="b" horiz-adv-x="611" 
d="M223 374h2q21 39 52.5 58.5t76.5 19.5q40 0 79 -15.5t70 -45.5t49.5 -73.5t18.5 -98.5q0 -36 -14.5 -76.5t-42.5 -75t-68 -57t-92 -22.5q-42 0 -79.5 21.5t-54.5 66.5h-2v-88q-2 3 -11 5t-20.5 3.5t-24.5 2.5t-23 1h-123v18h69v668h-69v18h89q18 0 36 1t34 4t29 9t19 17
v-361zM421 275q0 35 -4 64.5t-14 50.5t-27 32.5t-43 11.5q-24 0 -44.5 -12.5t-35 -32t-22.5 -42t-8 -43.5v-159q0 -27 8.5 -51.5t23 -42.5t34 -28.5t42.5 -10.5q45 0 67.5 30t22.5 100v133z" />
    <glyph glyph-name="c" unicode="c" horiz-adv-x="500" 
d="M459 335q0 -27 -17.5 -48t-55.5 -21q-31 0 -48 19.5t-17 48.5q0 17 6 27.5t13 17t13 12t6 11.5q0 12 -18.5 22t-53.5 10q-55 0 -76 -34t-21 -110v-129q0 -44 7.5 -79t26.5 -54q21 -22 65 -22q31 0 59 10.5t49.5 29t35.5 43.5t18 54h18q-9 -71 -60 -113t-129 -42
q-51 0 -95 18t-76 49t-50.5 73t-18.5 90q0 45 20.5 87t54 75t78 52.5t92.5 19.5q33 0 64 -8t55.5 -23t39.5 -36.5t15 -49.5z" />
    <glyph glyph-name="d" unicode="d" horiz-adv-x="611" 
d="M517 18h69v-18h-106q-9 0 -23 -1t-28.5 -2.5t-28 -3.5t-21.5 -5v73h-2q-19 -35 -48.5 -54t-77.5 -19q-41 0 -79 16.5t-67 46.5t-47 71t-18 90q0 51 15.5 95t43.5 76.5t67.5 50.5t86.5 18q48 0 77.5 -20t46.5 -57h2v311h-83v18h103q18 0 36 1t34 4t29 9t19 17v-717z
M379 309q0 20 -7.5 41t-21.5 38.5t-34.5 28.5t-45.5 11q-38 0 -59 -29.5t-21 -90.5v-155q0 -67 19 -104t66 -37q24 0 43.5 10.5t33 27.5t20.5 38t7 42v179z" />
    <glyph glyph-name="e" unicode="e" horiz-adv-x="500" 
d="M190 242v-89q0 -75 25.5 -108t77.5 -33q60 0 100.5 40.5t57.5 110.5h18q-19 -87 -72 -131t-134 -44q-48 0 -89 17t-70.5 47.5t-46.5 72t-17 90.5q0 48 17 91t46.5 75.5t70.5 51.5t89 19q39 0 75 -17.5t64.5 -47t45.5 -67.5t18 -78h-276zM190 260h126v90q0 36 -13 60
t-50 24q-12 0 -23 -4t-20 -13.5t-14.5 -26t-5.5 -40.5v-90z" />
    <glyph glyph-name="f" unicode="f" horiz-adv-x="334" 
d="M388 625q0 -34 -18 -51.5t-43 -17.5q-29 0 -44 16.5t-15 39.5q0 14 5 23.5t10.5 17t10.5 14t5 13.5q0 14 -10 18t-19 4q-26 0 -45 -21.5t-19 -67.5q0 -43 8.5 -85t8.5 -88h76v-18h-76v-404h69v-18h-276v18h69v404h-69v18h69q1 62 15 113.5t39.5 88.5t61 57.5t79.5 20.5
q46 0 77 -26.5t31 -68.5z" />
    <glyph glyph-name="g" unicode="g" horiz-adv-x="500" 
d="M503 407q0 -20 -13 -35.5t-37 -15.5q-23 0 -34.5 14.5t-11.5 31.5q0 15 5.5 25.5t21.5 18.5v2q-12 -2 -19.5 -4.5t-14 -7t-13.5 -12.5t-19 -21q21 -18 32 -47.5t11 -53.5q0 -32 -14 -58.5t-38.5 -45.5t-57 -29.5t-68.5 -10.5q-27 0 -41.5 6t-32.5 6q-15 0 -30 -5
t-26 -12.5t-18 -16.5t-7 -18q0 -14 13 -21t42 -7h177q70 0 104.5 -33.5t34.5 -105.5q0 -46 -16.5 -85.5t-47 -68.5t-73 -45.5t-93.5 -16.5q-43 0 -79 10t-62.5 28t-41.5 42t-15 51q0 33 25.5 61t60.5 38v2q-31 9 -48 35.5t-17 64.5q0 48 26 77.5t74 37.5v2q-40 18 -61.5 49
t-21.5 73q0 31 14 58t37.5 46.5t55.5 30.5t68 11q42 0 72 -10t52 -26q14 17 33 30.5t44 13.5q27 0 47.5 -15t20.5 -38zM235 176q30 0 40.5 14t15.5 40q6 30 6 76q0 12 -0.5 29t-2.5 33.5t-6 30.5t-11 22q-7 7 -16 10t-27 3q-40 0 -50.5 -33.5t-10.5 -92.5q0 -28 1.5 -51
t6.5 -40q5 -20 16 -30.5t38 -10.5zM123 -36q-22 -24 -32 -47t-10 -53q0 -21 10.5 -40.5t29 -35.5t44.5 -25.5t57 -9.5q36 0 70 11t61 30.5t43.5 45t16.5 54.5q0 21 -6 35t-20.5 21.5t-39 10.5t-60.5 3h-164z" />
    <glyph glyph-name="h" unicode="h" horiz-adv-x="611" 
d="M223 359h2q19 42 63.5 67.5t96.5 25.5q73 0 107 -38t34 -113v-283h69v-18h-264v18h57v320q0 36 -13.5 57t-45.5 21q-20 0 -39 -12t-34 -30t-24 -40t-9 -41v-275h59v-18h-266v18h69v668h-69v18h89q18 0 36.5 0.5t34.5 3.5t28.5 9t18.5 17v-375z" />
    <glyph glyph-name="i" unicode="i" horiz-adv-x="334" 
d="M248 619q0 -34 -23.5 -57.5t-57.5 -23.5t-57.5 23.5t-23.5 57.5t23.5 57.5t57.5 23.5t57.5 -23.5t23.5 -57.5zM236 18h69v-18h-276v18h69v404h-69v18h78q57 0 88.5 6.5t40.5 19.5v-448z" />
    <glyph glyph-name="j" unicode="j" horiz-adv-x="334" 
d="M248 619q0 -34 -23.5 -57.5t-57.5 -23.5t-57.5 23.5t-23.5 57.5t23.5 57.5t57.5 23.5t57.5 -23.5t23.5 -57.5zM236 -63q0 -43 -13.5 -80t-36.5 -64t-54 -42.5t-67 -15.5q-44 0 -66.5 19.5t-22.5 51.5q0 25 17 40.5t40 15.5q27 0 42 -17.5t15 -43.5q0 -11 -3.5 -19.5
t-11.5 -19.5q2 -2 6.5 -2.5t6.5 -0.5q17 0 29.5 14.5t12.5 40.5q0 22 -5 42.5t-11 43t-11 49t-5 59.5v414h-69v18h78q57 0 88.5 6.5t40.5 19.5v-529z" />
    <glyph glyph-name="k" unicode="k" horiz-adv-x="611" 
d="M223 237l111 88q78 61 78 80q0 17 -50 17h-18v18h218v-18h-7q-26 0 -43 -4t-37 -15.5t-48 -32t-75 -54.5l187 -298h60v-18h-279v18h60l-129 218l-28 -21v-197h52v-18h-259v18h69v668h-69v18h89q18 0 36 1t34 4t29 9t19 17v-498z" />
    <glyph glyph-name="l" unicode="l" horiz-adv-x="334" 
d="M236 18h69v-18h-276v18h69v668h-69v18h89q18 0 36.5 0.5t34.5 3.5t28.5 9t18.5 17v-716z" />
    <glyph glyph-name="m" unicode="m" horiz-adv-x="888" 
d="M223 359h2q19 42 63 67.5t97 25.5q43 0 78.5 -22.5t49.5 -70.5q25 45 67 69t93 24q130 0 130 -151v-283h69v-18h-260v18h53v313q0 38 -9 61.5t-38 23.5q-23 0 -42 -12.5t-33 -31t-22 -40t-8 -39.5v-275h55v-18h-249v18h56v313q0 38 -9 61.5t-38 23.5q-23 0 -42 -12.5
t-33 -31t-22 -40t-8 -39.5v-275h52v-18h-259v18h69v404h-69v18h78q57 0 88.5 6.5t40.5 19.5v-107z" />
    <glyph glyph-name="n" unicode="n" horiz-adv-x="611" 
d="M223 359h2q19 42 63.5 67.5t96.5 25.5q73 0 107 -38t34 -113v-283h69v-18h-264v18h57v320q0 36 -13.5 57t-45.5 21q-20 0 -39 -12t-34 -30t-24 -40t-9 -41v-275h59v-18h-266v18h69v404h-69v18h78q57 0 88.5 6.5t40.5 19.5v-107z" />
    <glyph glyph-name="o" unicode="o" 
d="M516 220q0 -50 -18 -92t-49.5 -73.5t-75.5 -49t-95 -17.5q-50 0 -93.5 17.5t-75.5 48t-50.5 73t-18.5 93.5q0 50 18 92.5t50 73.5t75.5 48.5t94.5 17.5t95 -17.5t75.5 -49t49.5 -74t18 -91.5zM196 108q0 -52 21.5 -77t60.5 -25t60.5 25.5t21.5 77.5v223q0 51 -21.5 76.5
t-61.5 25.5q-35 0 -58 -24t-23 -79v-223z" />
    <glyph glyph-name="p" unicode="p" horiz-adv-x="611" 
d="M223 375h2q20 40 52 58.5t72 18.5q48 0 87 -18t67 -50.5t43.5 -76.5t15.5 -95q0 -47 -17 -88t-46 -71t-67.5 -47.5t-80.5 -17.5q-49 0 -78 19t-48 54h-2v-308h76v-18h-283v18h69v669h-69v18h86q18 0 36.5 1t35 4t30 9t19.5 17v-96zM223 130q0 -23 7.5 -44t21.5 -37.5
t33 -26.5t42 -10q85 0 85 135v171q0 48 -20 79t-62 31q-24 0 -44 -11t-34 -28t-21.5 -38t-7.5 -41v-180z" />
    <glyph glyph-name="q" unicode="q" horiz-adv-x="611" 
d="M379 471q6 -11 19 -17t30 -9t36 -4t37 -1h85v-18h-69v-669h69v-18h-283v18h76v308h-2q-19 -35 -48.5 -54t-77.5 -19q-41 0 -79.5 17t-67.5 47t-46.5 71t-17.5 89q0 51 15.5 95t43.5 76.5t67 50.5t87 18q40 0 72 -18.5t52 -58.5h2v96zM190 147q0 -135 85 -135
q24 0 43.5 10.5t33 27.5t20.5 38t7 42v179q0 20 -7.5 41t-21.5 38.5t-34 28.5t-46 11q-38 0 -59 -30.5t-21 -79.5v-171z" />
    <glyph glyph-name="r" unicode="r" horiz-adv-x="444" 
d="M221 364h2q7 19 19.5 36t30 30t38 20.5t44.5 7.5q35 0 57 -20.5t22 -56.5q0 -29 -20 -51t-56 -22q-29 0 -48.5 18t-19.5 47q0 19 5.5 32t18.5 27h-4q-49 -22 -68 -62.5t-19 -92.5v-259h92v-18h-299v18h69v404h-69v18h76q57 0 88.5 6.5t40.5 19.5v-102z" />
    <glyph glyph-name="s" unicode="s" horiz-adv-x="444" 
d="M307 430q14 0 22.5 6.5t8.5 15.5h15l6 -142h-16q-47 124 -140 124q-42 0 -68.5 -20t-26.5 -55q0 -23 12.5 -34.5t33.5 -17.5t48.5 -9t57.5 -9q71 -13 100.5 -43.5t29.5 -92.5q0 -33 -12.5 -63t-34 -52.5t-50.5 -36t-63 -13.5q-22 0 -38.5 3.5t-29.5 8t-23.5 8.5t-21.5 4
q-15 0 -26 -6t-15 -18h-18v168h18q8 -32 23.5 -59t36.5 -47.5t45.5 -32t50.5 -11.5q42 0 70 23t28 63q0 31 -20.5 43t-75.5 18q-39 5 -69 11t-52 19q-59 35 -59 119q0 29 10.5 56t30 48t46.5 33.5t60 12.5q18 0 32.5 -3.5t26.5 -7.5t23.5 -7.5t23.5 -3.5z" />
    <glyph glyph-name="t" unicode="t" horiz-adv-x="334" 
d="M218 655v-215h92v-18h-92v-342q0 -22 9.5 -36t29.5 -14q19 0 31.5 14t21.5 28l13 -7q-46 -77 -130 -77q-23 0 -43 8t-36 22t-25 34.5t-9 46.5v323h-53v18q36 0 67 17t54.5 46.5t37 68.5t14.5 83h18z" />
    <glyph glyph-name="u" unicode="u" horiz-adv-x="611" 
d="M223 114q0 -39 10.5 -64.5t47.5 -25.5q22 0 41.5 13t34 33t23 44t8.5 45v263h-69v18h78q57 0 88.5 6.5t40.5 19.5v-448h69v-18h-207v84h-2q-20 -46 -65 -71t-95 -25q-73 0 -107 38t-34 113v283h-69v18h78q57 0 88.5 6.5t40.5 19.5v-352z" />
    <glyph glyph-name="v" unicode="v" horiz-adv-x="500" 
d="M259 440v-18h-60l117 -263l68 160q17 42 17 66q0 18 -11 27.5t-37 9.5h-17v18h156v-18h-7q-20 0 -37.5 -23.5t-37.5 -69.5l-144 -341h-27l-188 434h-43v18h251z" />
    <glyph glyph-name="w" unicode="w" horiz-adv-x="778" 
d="M252 440v-18h-60l114 -276l67 153l-50 123h-42v18h244v-18h-60l115 -273q17 41 33 77t28.5 66t20 54t7.5 40q0 17 -12.5 26.5t-45.5 9.5h-10v18h156v-18h-7q-17 0 -29 -12t-23 -38l-168 -384h-27l-121 290l-126 -290h-27l-178 434h-42v18h243z" />
    <glyph glyph-name="x" unicode="x" 
d="M277 440v-18h-54l86 -129q19 24 32 40t20 27t10 19t3 16q0 11 -10 19t-32 8h-17v18h180v-18h-20q-13 0 -24 -3t-22 -13q-15 -13 -40 -44t-70 -85l173 -259h48v-18h-282v18h72l-100 150q-6 -9 -18.5 -24.5t-25 -33t-22 -35t-9.5 -29.5q0 -15 12 -21.5t32 -6.5h23v-18h-206
v18h9q34 0 53.5 12.5t40.5 35.5t46 54t53 65l-154 237h-48v18h261z" />
    <glyph glyph-name="y" unicode="y" horiz-adv-x="500" 
d="M265 440v-18h-66l117 -263q30 71 47.5 112t26 64t11 33t2.5 19q0 14 -11 24.5t-38 10.5h-18v18h156v-18h-7q-16 0 -31 -16t-34 -59q-32 -73 -56.5 -127t-38.5 -87q-14 -32 -22.5 -54t-14.5 -37.5t-10.5 -26.5t-8.5 -21q-6 -23 -11.5 -50.5t-11.5 -54t-12.5 -50.5
t-14.5 -39q-29 -57 -85 -57q-33 0 -57.5 19.5t-24.5 50.5q0 29 16.5 48.5t49.5 19.5q32 0 49 -17t17 -43q0 -7 -1 -15t-4 -19v-3q16 4 33 49.5t30 143.5l-192 445h-42v18h257z" />
    <glyph glyph-name="z" unicode="z" horiz-adv-x="500" 
d="M454 440v-12l-265 -410h70q32 0 61.5 12.5t52.5 35t37 53t14 67.5v14h18v-200h-410v12l260 410h-47q-37 0 -60 -6.5t-44 -20.5q-29 -20 -48.5 -55t-19.5 -72v-12h-18v184h399z" />
    <glyph glyph-name="braceleft" unicode="{" horiz-adv-x="333" 
d="M285 711q-51 -3 -76 -30.5t-25 -93.5v-199q0 -33 -4 -56.5t-13.5 -40t-25 -27.5t-38.5 -18v-2q44 -8 62.5 -37.5t18.5 -99.5v-203q0 -44 11.5 -74t48.5 -44q2 -1 14.5 -3.5t26.5 -3.5v-18h-8q-48 0 -76.5 9t-45.5 27t-24 47.5t-7 63.5v213q0 48 -15 77.5t-61 46.5
q20 8 34.5 17.5t23.5 23.5t13.5 34t4.5 48v213q0 43 9 71.5t28 45.5t47.5 24t67.5 7h9v-18z" />
    <glyph glyph-name="bar" unicode="|" horiz-adv-x="222" 
d="M153 750v-1000h-84v1000h84z" />
    <glyph glyph-name="braceright" unicode="}" horiz-adv-x="333" 
d="M48 -221q51 3 76 30.5t25 93.5v199q0 33 4 56.5t13.5 40t25 27t38.5 18.5v2q-22 4 -37.5 13t-25 24.5t-14 40t-4.5 59.5v202q0 44 -11.5 74.5t-49.5 44.5q-2 1 -14 3.5t-26 3.5v18h8q48 0 76.5 -9t45.5 -27t24 -47.5t7 -63.5v-213q0 -48 15 -77.5t61 -46.5
q-20 -8 -34.5 -17.5t-23.5 -23.5t-13.5 -34t-4.5 -48v-213q0 -43 -9 -71.5t-28 -45.5t-47.5 -24t-67.5 -7h-9v18z" />
    <glyph glyph-name="asciitilde" unicode="~" horiz-adv-x="600" 
d="M411 259q52 0 84 72l36 -69q-34 -48 -65 -67.5t-72 -19.5q-31 0 -55.5 11t-47.5 24.5t-46 25t-50 11.5q-29 0 -51.5 -19.5t-38.5 -52.5l-36 67q32 48 63.5 68.5t73.5 20.5q32 0 58 -11.5t50 -25t47 -24.5t50 -11z" />
    <glyph glyph-name="uni00A0" unicode="&#xa0;" horiz-adv-x="278" 
 />
    <glyph glyph-name="Agrave" unicode="&#xc0;" horiz-adv-x="667" 
d="M324 720h15l268 -702h49v-18h-298v18h80l-73 208h-194q-7 -20 -15.5 -45.5t-17.5 -51.5q-8 -24 -15 -43.5t-7 -30.5q0 -37 50 -37h26v-18h-181v18h9q26 0 43.5 15t26.5 40l15 41zM268 497l-89 -253h178l-87 253h-2zM363 736l-131 139q-11 12 -17.5 23.5t-6.5 16.5
q0 11 8.5 18t29.5 7q18 0 25 -5t13 -14q5 -8 28 -55t64 -130h-13z" />
    <glyph glyph-name="Aacute" unicode="&#xc1;" horiz-adv-x="667" 
d="M324 720h15l268 -702h49v-18h-298v18h80l-73 208h-194q-7 -20 -15.5 -45.5t-17.5 -51.5q-8 -24 -15 -43.5t-7 -30.5q0 -37 50 -37h26v-18h-181v18h9q26 0 43.5 15t26.5 40l15 41zM268 497l-89 -253h178l-87 253h-2zM460 915q0 -6 -7 -17.5t-16 -21.5l-132 -140h-13
q40 81 61.5 125.5t27.5 54.5t12.5 17t27.5 7t30 -7t9 -18z" />
    <glyph glyph-name="Acircumflex" unicode="&#xc2;" horiz-adv-x="667" 
d="M324 720h15l268 -702h49v-18h-298v18h80l-73 208h-194q-7 -20 -15.5 -45.5t-17.5 -51.5q-8 -24 -15 -43.5t-7 -30.5q0 -37 50 -37h26v-18h-181v18h9q26 0 43.5 15t26.5 40l15 41zM268 497l-89 -253h178l-87 253h-2zM371 910l102 -204h-14l-122 130l-128 -130h-14l108 204
h68z" />
    <glyph glyph-name="Atilde" unicode="&#xc3;" horiz-adv-x="667" 
d="M324 720h15l268 -702h49v-18h-298v18h80l-73 208h-194q-7 -20 -15.5 -45.5t-17.5 -51.5q-8 -24 -15 -43.5t-7 -30.5q0 -37 50 -37h26v-18h-181v18h9q26 0 43.5 15t26.5 40l15 41zM268 497l-89 -253h178l-87 253h-2zM492 904q-16 -60 -38.5 -87t-55.5 -27q-20 0 -41.5 5.5
t-42.5 13.5q-23 8 -44 14.5t-40 6.5q-17 0 -25.5 -16t-10.5 -30h-18q17 61 38 89.5t54 28.5q14 0 32 -5.5t40 -13.5q26 -10 53.5 -18.5t46.5 -8.5q8 0 16.5 13t16.5 35h19z" />
    <glyph glyph-name="Adieresis" unicode="&#xc4;" horiz-adv-x="667" 
d="M324 720h15l268 -702h49v-18h-298v18h80l-73 208h-194q-7 -20 -15.5 -45.5t-17.5 -51.5q-8 -24 -15 -43.5t-7 -30.5q0 -37 50 -37h26v-18h-181v18h9q26 0 43.5 15t26.5 40l15 41zM268 497l-89 -253h178l-87 253h-2zM310 845q0 -26 -18.5 -44.5t-44.5 -18.5t-44.5 18.5
t-18.5 44.5t18.5 44.5t44.5 18.5t44.5 -18.5t18.5 -44.5zM484 845q0 -26 -18.5 -44.5t-44.5 -18.5t-44.5 18.5t-18.5 44.5t18.5 44.5t44.5 18.5t44.5 -18.5t18.5 -44.5z" />
    <glyph glyph-name="Aring" unicode="&#xc5;" horiz-adv-x="667" 
d="M324 720h15l268 -702h49v-18h-298v18h80l-73 208h-194q-7 -20 -15.5 -45.5t-17.5 -51.5q-8 -24 -15 -43.5t-7 -30.5q0 -37 50 -37h26v-18h-181v18h9q26 0 43.5 15t26.5 40l15 41zM268 497l-89 -253h178l-87 253h-2zM442 841q0 -23 -8.5 -42.5t-23.5 -34t-34.5 -23
t-41.5 -8.5q-23 0 -42.5 8.5t-34 23t-23 34t-8.5 42.5q0 22 8.5 41.5t23 34.5t34 23.5t42.5 8.5q22 0 42 -8.5t34.5 -23t23 -34.5t8.5 -42zM334 781q25 0 42.5 17.5t17.5 42.5t-17.5 42.5t-43.5 17.5q-24 0 -41.5 -17.5t-17.5 -42.5t17.5 -42.5t42.5 -17.5z" />
    <glyph glyph-name="AE" unicode="&#xc6;" horiz-adv-x="1000" 
d="M914 704v-199h-18v13q0 39 -14.5 70.5t-39 53t-58 33t-71.5 11.5h-120v-306h69q45 0 71.5 30t26.5 101v12h18v-316h-18v5q0 34 -7 62t-23.5 47.5t-44 30t-67.5 10.5h-25v-344h147q84 0 134 52t50 150v5h18v-225h-586v18h87v208h-236l-52 -96q-28 -53 -28 -77
q0 -15 13.5 -25t50.5 -10h6v-18h-186v18h9q23 0 44.5 20t44.5 58q25 42 38.5 65.5t15.5 28.5l280 496h-87v18h558zM441 650l-226 -406h228v406h-2z" />
    <glyph glyph-name="Ccedilla" unicode="&#xc7;" horiz-adv-x="667" 
d="M554 669q31 0 33 30h18v-236h-18q-8 46 -28 89t-49 76.5t-64.5 53.5t-73.5 20q-84 0 -122.5 -86t-38.5 -264q0 -94 9 -160.5t28.5 -108.5t49 -61.5t71.5 -19.5q65 0 120.5 43.5t85.5 121.5q7 18 10.5 37.5t7.5 40.5h15v-245h-15q-3 12 -12 26.5t-25 14.5q-12 0 -26 -8
t-34 -17.5t-47.5 -18.5t-66.5 -11l-42 -70l2 -2q15 6 30 8t30 2q33 0 56.5 -18t23.5 -44q0 -38 -33 -58t-84 -20q-28 0 -53 6.5t-51 15.5l8 13q23 -8 38.5 -9.5t38.5 -1.5q27 0 42.5 13t15.5 39q0 15 -9 27.5t-29 12.5q-22 0 -41 -6l-17 7l50 83h-3q-69 0 -126 29t-98.5 78
t-64.5 113.5t-23 135.5t24 139t67 121.5t103.5 86.5t133.5 33q27 0 53 -8t50 -17.5t44.5 -17.5t35.5 -8z" />
    <glyph glyph-name="Eth" unicode="&#xd0;" horiz-adv-x="778" 
d="M384 704q75 0 139.5 -24.5t111.5 -70.5t73.5 -112t26.5 -149q0 -58 -19.5 -119.5t-61 -112.5t-107 -83.5t-157.5 -32.5h-355v18h81v361h-70v30h70v277h-81v18h349zM423 409v-30h-151v-361h87q43 0 86 15t71 56q12 18 21.5 39.5t16 52t10 73t3.5 102.5q0 61 -3.5 104.5
t-9.5 74t-15 51.5t-21 37q-24 34 -62 48.5t-85 14.5h-99v-277h151z" />
    <glyph glyph-name="Egrave" unicode="&#xc8;" horiz-adv-x="667" 
d="M581 704v-199h-18v10q0 42 -14.5 73.5t-39.5 53.5t-58.5 33t-70.5 11h-121v-306h70q38 0 62 19t32 64q2 14 3 27.5t1 32.5h18v-316h-18v19q0 35 -8 61t-21.5 42.5t-31 24.5t-36.5 8h-71v-344h148q84 0 134 52t50 145v10h18v-225h-587v18h81v668h-81v18h559zM363 736
l-131 139q-11 12 -17.5 23.5t-6.5 16.5q0 11 8.5 18t29.5 7q18 0 25 -5t13 -14q5 -8 28 -55t64 -130h-13z" />
    <glyph glyph-name="Eacute" unicode="&#xc9;" horiz-adv-x="667" 
d="M581 704v-199h-18v10q0 42 -14.5 73.5t-39.5 53.5t-58.5 33t-70.5 11h-121v-306h70q38 0 62 19t32 64q2 14 3 27.5t1 32.5h18v-316h-18v19q0 35 -8 61t-21.5 42.5t-31 24.5t-36.5 8h-71v-344h148q84 0 134 52t50 145v10h18v-225h-587v18h81v668h-81v18h559zM460 915
q0 -6 -7 -17.5t-16 -21.5l-132 -140h-13q40 81 61.5 125.5t27.5 54.5t12.5 17t27.5 7t30 -7t9 -18z" />
    <glyph glyph-name="Ecircumflex" unicode="&#xca;" horiz-adv-x="667" 
d="M581 704v-199h-18v10q0 42 -14.5 73.5t-39.5 53.5t-58.5 33t-70.5 11h-121v-306h70q38 0 62 19t32 64q2 14 3 27.5t1 32.5h18v-316h-18v19q0 35 -8 61t-21.5 42.5t-31 24.5t-36.5 8h-71v-344h148q84 0 134 52t50 145v10h18v-225h-587v18h81v668h-81v18h559zM371 940
l102 -204h-14l-122 130l-128 -130h-14l108 204h68z" />
    <glyph glyph-name="Edieresis" unicode="&#xcb;" horiz-adv-x="667" 
d="M581 704v-199h-18v10q0 42 -14.5 73.5t-39.5 53.5t-58.5 33t-70.5 11h-121v-306h70q38 0 62 19t32 64q2 14 3 27.5t1 32.5h18v-316h-18v19q0 35 -8 61t-21.5 42.5t-31 24.5t-36.5 8h-71v-344h148q84 0 134 52t50 145v10h18v-225h-587v18h81v668h-81v18h559zM310 845
q0 -26 -18.5 -44.5t-44.5 -18.5t-44.5 18.5t-18.5 44.5t18.5 44.5t44.5 18.5t44.5 -18.5t18.5 -44.5zM484 845q0 -26 -18.5 -44.5t-44.5 -18.5t-44.5 18.5t-18.5 44.5t18.5 44.5t44.5 18.5t44.5 -18.5t18.5 -44.5z" />
    <glyph glyph-name="Igrave" unicode="&#xcc;" horiz-adv-x="390" 
d="M354 704v-18h-81v-668h81v-18h-318v18h81v668h-81v18h318zM224 736l-131 139q-11 12 -17.5 23.5t-6.5 16.5q0 11 8.5 18t29.5 7q18 0 25 -5t13 -14q5 -8 28 -55t64 -130h-13z" />
    <glyph glyph-name="Iacute" unicode="&#xcd;" horiz-adv-x="390" 
d="M354 704v-18h-81v-668h81v-18h-318v18h81v668h-81v18h318zM321 915q0 -6 -7 -17.5t-16 -21.5l-132 -140h-13q40 81 61.5 125.5t27.5 54.5t12.5 17t27.5 7t30 -7t9 -18z" />
    <glyph glyph-name="Icircumflex" unicode="&#xce;" horiz-adv-x="390" 
d="M354 704v-18h-81v-668h81v-18h-318v18h81v668h-81v18h318zM232 940l102 -204h-14l-122 130l-128 -130h-14l108 204h68z" />
    <glyph glyph-name="Idieresis" unicode="&#xcf;" horiz-adv-x="390" 
d="M354 704v-18h-81v-668h81v-18h-318v18h81v668h-81v18h318zM171 845q0 -26 -18.5 -44.5t-44.5 -18.5t-44.5 18.5t-18.5 44.5t18.5 44.5t44.5 18.5t44.5 -18.5t18.5 -44.5zM345 845q0 -26 -18.5 -44.5t-44.5 -18.5t-44.5 18.5t-18.5 44.5t18.5 44.5t44.5 18.5t44.5 -18.5
t18.5 -44.5z" />
    <glyph glyph-name="Ntilde" unicode="&#xd1;" horiz-adv-x="722" 
d="M225 704l377 -485h2v409q0 26 -15 42t-57 16h-15v18h189v-18h-16q-22 0 -42 -13t-20 -43v-642h-42l-466 608h-2v-513q0 -36 15.5 -50.5t60.5 -14.5h11v-18h-189v18h18q33 0 46.5 18.5t13.5 51.5v539l-44 59h-31v18h206zM519 904q-16 -60 -38.5 -87t-55.5 -27
q-20 0 -41.5 5.5t-42.5 13.5q-23 8 -44 14.5t-40 6.5q-17 0 -25.5 -16t-10.5 -30h-18q17 61 38 89.5t54 28.5q14 0 32 -5.5t40 -13.5q26 -10 53.5 -18.5t46.5 -8.5q8 0 16.5 13t16.5 35h19z" />
    <glyph glyph-name="Ograve" unicode="&#xd2;" horiz-adv-x="722" 
d="M679 348q0 -71 -25.5 -137t-69 -116.5t-101.5 -80.5t-124 -30t-124 31.5t-100.5 82t-67 114.5t-24.5 130q0 89 26.5 159.5t70.5 119t101 74t118 25.5q70 0 128.5 -29t101 -79t66.5 -118t24 -146zM362 2q42 0 70.5 17.5t46 58t25 107t7.5 165.5q0 96 -10.5 176.5
t-39.5 125.5q-17 25 -39.5 37.5t-60.5 12.5q-47 0 -72.5 -20t-42.5 -59q-20 -45 -27.5 -114t-7.5 -158q0 -97 7.5 -163.5t24.5 -108t46 -59.5t73 -18zM390 736l-131 139q-11 12 -17.5 23.5t-6.5 16.5q0 11 8.5 18t29.5 7q18 0 25 -5t13 -14q5 -8 28 -55t64 -130h-13z" />
    <glyph glyph-name="Oacute" unicode="&#xd3;" horiz-adv-x="722" 
d="M679 348q0 -71 -25.5 -137t-69 -116.5t-101.5 -80.5t-124 -30t-124 31.5t-100.5 82t-67 114.5t-24.5 130q0 89 26.5 159.5t70.5 119t101 74t118 25.5q70 0 128.5 -29t101 -79t66.5 -118t24 -146zM362 2q42 0 70.5 17.5t46 58t25 107t7.5 165.5q0 96 -10.5 176.5
t-39.5 125.5q-17 25 -39.5 37.5t-60.5 12.5q-47 0 -72.5 -20t-42.5 -59q-20 -45 -27.5 -114t-7.5 -158q0 -97 7.5 -163.5t24.5 -108t46 -59.5t73 -18zM487 915q0 -6 -7 -17.5t-16 -21.5l-132 -140h-13q40 81 61.5 125.5t27.5 54.5t12.5 17t27.5 7t30 -7t9 -18z" />
    <glyph glyph-name="Ocircumflex" unicode="&#xd4;" horiz-adv-x="722" 
d="M679 348q0 -71 -25.5 -137t-69 -116.5t-101.5 -80.5t-124 -30t-124 31.5t-100.5 82t-67 114.5t-24.5 130q0 89 26.5 159.5t70.5 119t101 74t118 25.5q70 0 128.5 -29t101 -79t66.5 -118t24 -146zM362 2q42 0 70.5 17.5t46 58t25 107t7.5 165.5q0 96 -10.5 176.5
t-39.5 125.5q-17 25 -39.5 37.5t-60.5 12.5q-47 0 -72.5 -20t-42.5 -59q-20 -45 -27.5 -114t-7.5 -158q0 -97 7.5 -163.5t24.5 -108t46 -59.5t73 -18zM398 940l102 -204h-14l-122 130l-128 -130h-14l108 204h68z" />
    <glyph glyph-name="Otilde" unicode="&#xd5;" horiz-adv-x="722" 
d="M679 348q0 -71 -25.5 -137t-69 -116.5t-101.5 -80.5t-124 -30t-124 31.5t-100.5 82t-67 114.5t-24.5 130q0 89 26.5 159.5t70.5 119t101 74t118 25.5q70 0 128.5 -29t101 -79t66.5 -118t24 -146zM362 2q42 0 70.5 17.5t46 58t25 107t7.5 165.5q0 96 -10.5 176.5
t-39.5 125.5q-17 25 -39.5 37.5t-60.5 12.5q-47 0 -72.5 -20t-42.5 -59q-20 -45 -27.5 -114t-7.5 -158q0 -97 7.5 -163.5t24.5 -108t46 -59.5t73 -18zM519 904q-16 -60 -38.5 -87t-55.5 -27q-20 0 -41.5 5.5t-42.5 13.5q-23 8 -44 14.5t-40 6.5q-17 0 -25.5 -16t-10.5 -30
h-18q17 61 38 89.5t54 28.5q14 0 32 -5.5t40 -13.5q26 -10 53.5 -18.5t46.5 -8.5q8 0 16.5 13t16.5 35h19z" />
    <glyph glyph-name="Odieresis" unicode="&#xd6;" horiz-adv-x="722" 
d="M679 348q0 -71 -25.5 -137t-69 -116.5t-101.5 -80.5t-124 -30t-124 31.5t-100.5 82t-67 114.5t-24.5 130q0 89 26.5 159.5t70.5 119t101 74t118 25.5q70 0 128.5 -29t101 -79t66.5 -118t24 -146zM362 2q42 0 70.5 17.5t46 58t25 107t7.5 165.5q0 96 -10.5 176.5
t-39.5 125.5q-17 25 -39.5 37.5t-60.5 12.5q-47 0 -72.5 -20t-42.5 -59q-20 -45 -27.5 -114t-7.5 -158q0 -97 7.5 -163.5t24.5 -108t46 -59.5t73 -18zM337 845q0 -26 -18.5 -44.5t-44.5 -18.5t-44.5 18.5t-18.5 44.5t18.5 44.5t44.5 18.5t44.5 -18.5t18.5 -44.5zM511 845
q0 -26 -18.5 -44.5t-44.5 -18.5t-44.5 18.5t-18.5 44.5t18.5 44.5t44.5 18.5t44.5 -18.5t18.5 -44.5z" />
    <glyph glyph-name="Oslash" unicode="&#xd8;" horiz-adv-x="722" 
d="M563 718l-28 -56q69 -51 106.5 -132.5t37.5 -181.5q0 -72 -25 -137.5t-68.5 -116t-101.5 -80.5t-123 -30q-42 0 -79 12t-69 33l-28 -55l-25 12l30 60q-31 23 -58 55t-46.5 71t-31 83t-11.5 90q0 58 12 108t33 91t49.5 73t61.5 54q37 25 78 37t84 12q81 0 150 -43l27 53z
M479 613q-18 47 -44.5 68t-74.5 21t-75 -23t-44 -69q-17 -45 -23.5 -110.5t-6.5 -148.5q0 -75 4 -131t15 -96zM241 85q17 -45 46 -64t74 -19q43 0 72 18t46 59.5t24.5 108t7.5 164.5q0 78 -5 131.5t-16 90.5z" />
    <glyph glyph-name="OE" unicode="&#x152;" horiz-adv-x="1000" 
d="M919 704v-199h-18v26q0 45 -15 74.5t-40.5 47.5t-59 25.5t-71.5 7.5h-90v-306h59q40 0 66 27.5t26 92.5v23h18v-316h-18v23q0 24 -6.5 48t-20 42.5t-35 30t-51.5 11.5h-38v-344h97q35 0 66.5 5t54.5 16q22 10 38.5 24t27 33.5t15.5 46.5t5 64v18h18v-225h-400
q-16 0 -41.5 -2.5t-52.5 -5.5t-51.5 -5.5t-39.5 -2.5q-69 0 -127.5 29t-101 78.5t-66.5 116.5t-24 144q0 72 22 138.5t63 117.5t99.5 81.5t131.5 30.5q36 0 52.5 -4t27.5 -6q17 -2 38.5 -4t38.5 -2h403zM475 585q0 54 -27 85.5t-84 31.5q-34 0 -58.5 -9.5t-42.5 -32.5
q-15 -19 -25 -47t-16 -62t-8.5 -71.5t-2.5 -74.5v-107q0 -52 6 -105t22.5 -95.5t46 -69t77.5 -26.5q62 0 87 31.5t25 103.5v448z" />
    <glyph glyph-name="Scaron" unicode="&#x160;" horiz-adv-x="611" 
d="M456 666q17 0 24.5 10.5t7.5 28.5h18v-225h-18q-26 109 -78.5 165.5t-128.5 56.5q-60 0 -96.5 -35.5t-36.5 -92.5q0 -53 39 -78.5t113 -40.5q45 -9 79.5 -18t61.5 -21q64 -29 88 -74t24 -106q0 -59 -16 -105.5t-46 -79t-72.5 -50t-94.5 -17.5q-31 0 -62.5 8t-59.5 18
t-51 18t-36 8q-20 0 -28.5 -11t-8.5 -26h-18v266h18q13 -59 35.5 -107t53 -83t67.5 -54t79 -19q66 0 105 37.5t39 103.5q0 53 -33 85t-116 52q-69 17 -111.5 31.5t-70.5 36.5q-38 29 -53 69t-15 88q0 47 15 86.5t43.5 68t69 44.5t92.5 16q37 0 63.5 -8.5t46.5 -18.5
t35.5 -18.5t32.5 -8.5zM160 950h14l122 -130l128 130h14l-108 -204h-68z" />
    <glyph glyph-name="Thorn" unicode="&#xde;" horiz-adv-x="667" 
d="M342 704v-18h-78v-96q26 2 56 4t61 2q55 0 101 -13t79 -37t51.5 -59t18.5 -79q0 -99 -71 -152.5t-199 -53.5q-23 0 -47.5 1.5t-49.5 3.5v-189h99v-18h-336v18h81v668h-81v18h315zM264 231q11 -3 30 -4t31 -1q42 0 68.5 10.5t42 32t21.5 55.5t6 81q0 48 -7 80t-22.5 51.5
t-41.5 27.5t-64 8q-13 0 -27.5 -1t-36.5 -4v-336z" />
    <glyph glyph-name="Ugrave" unicode="&#xd9;" horiz-adv-x="722" 
d="M331 704v-18h-81v-446q0 -117 42.5 -168.5t131.5 -51.5q40 0 73 14t57 39.5t37 62.5t13 83v387q0 47 -17 63.5t-53 16.5h-26v18h198v-18h-24q-26 0 -40 -17.5t-14 -62.5v-380q0 -112 -65 -177t-199 -65q-64 0 -114 18t-84.5 50.5t-53 77.5t-18.5 99v457h-78v18h315z
M435 736l-131 139q-11 12 -17.5 23.5t-6.5 16.5q0 11 8.5 18t29.5 7q18 0 25 -5t13 -14q5 -8 28 -55t64 -130h-13z" />
    <glyph glyph-name="Uacute" unicode="&#xda;" horiz-adv-x="722" 
d="M331 704v-18h-81v-446q0 -117 42.5 -168.5t131.5 -51.5q40 0 73 14t57 39.5t37 62.5t13 83v387q0 47 -17 63.5t-53 16.5h-26v18h198v-18h-24q-26 0 -40 -17.5t-14 -62.5v-380q0 -112 -65 -177t-199 -65q-64 0 -114 18t-84.5 50.5t-53 77.5t-18.5 99v457h-78v18h315z
M532 915q0 -6 -7 -17.5t-16 -21.5l-132 -140h-13q40 81 61.5 125.5t27.5 54.5t12.5 17t27.5 7t30 -7t9 -18z" />
    <glyph glyph-name="Ucircumflex" unicode="&#xdb;" horiz-adv-x="722" 
d="M331 704v-18h-81v-446q0 -117 42.5 -168.5t131.5 -51.5q40 0 73 14t57 39.5t37 62.5t13 83v387q0 47 -17 63.5t-53 16.5h-26v18h198v-18h-24q-26 0 -40 -17.5t-14 -62.5v-380q0 -112 -65 -177t-199 -65q-64 0 -114 18t-84.5 50.5t-53 77.5t-18.5 99v457h-78v18h315z
M443 940l102 -204h-14l-122 130l-128 -130h-14l108 204h68z" />
    <glyph glyph-name="Udieresis" unicode="&#xdc;" horiz-adv-x="722" 
d="M331 704v-18h-81v-446q0 -117 42.5 -168.5t131.5 -51.5q40 0 73 14t57 39.5t37 62.5t13 83v387q0 47 -17 63.5t-53 16.5h-26v18h198v-18h-24q-26 0 -40 -17.5t-14 -62.5v-380q0 -112 -65 -177t-199 -65q-64 0 -114 18t-84.5 50.5t-53 77.5t-18.5 99v457h-78v18h315z
M382 816q0 -26 -18.5 -44.5t-44.5 -18.5t-44.5 18.5t-18.5 44.5t18.5 44.5t44.5 18.5t44.5 -18.5t18.5 -44.5zM556 816q0 -26 -18.5 -44.5t-44.5 -18.5t-44.5 18.5t-18.5 44.5t18.5 44.5t44.5 18.5t44.5 -18.5t18.5 -44.5z" />
    <glyph glyph-name="Yacute" unicode="&#xdd;" horiz-adv-x="667" 
d="M318 704v-18h-72l165 -378q32 73 54.5 124.5t38 86.5t25 56.5t14 35t6 21.5t1.5 15q0 20 -13 29.5t-49 9.5h-11v18h180v-18h-7q-27 0 -44.5 -18.5t-33.5 -53.5l-146 -327v-269h77v-18h-310v18h77v227l-194 441h-66v18h308zM505 915q0 -6 -7 -17.5t-16 -21.5l-132 -140
h-13q40 81 61.5 125.5t27.5 54.5t12.5 17t27.5 7t30 -7t9 -18z" />
    <glyph glyph-name="Ydieresis" unicode="&#x178;" horiz-adv-x="667" 
d="M318 704v-18h-72l165 -378q32 73 54.5 124.5t38 86.5t25 56.5t14 35t6 21.5t1.5 15q0 20 -13 29.5t-49 9.5h-11v18h180v-18h-7q-27 0 -44.5 -18.5t-33.5 -53.5l-146 -327v-269h77v-18h-310v18h77v227l-194 441h-66v18h308zM345 856q0 -26 -18.5 -44.5t-44.5 -18.5
t-44.5 18.5t-18.5 44.5t18.5 44.5t44.5 18.5t44.5 -18.5t18.5 -44.5zM519 856q0 -26 -18.5 -44.5t-44.5 -18.5t-44.5 18.5t-18.5 44.5t18.5 44.5t44.5 18.5t44.5 -18.5t18.5 -44.5z" />
    <glyph glyph-name="Zcaron" unicode="&#x17d;" horiz-adv-x="667" 
d="M605 704v-18l-405 -668h140q74 0 130 18t88 68q16 24 25 57t14 76h21l-18 -237h-580v18l407 668h-158q-80 0 -132 -45.5t-63 -153.5h-19l14 217h536zM215 950h14l122 -130l128 130h14l-108 -204h-68z" />
    <glyph glyph-name="agrave" unicode="&#xe0;" 
d="M460 77q0 -18 4.5 -32.5t18.5 -14.5q18 0 26.5 17.5t8.5 38.5h18q0 -45 -29 -71.5t-78 -26.5q-34 0 -60 15.5t-40 47.5q-15 -29 -53 -46t-81 -17q-34 0 -62.5 8.5t-49 24t-32 38t-11.5 51.5q0 120 186 135l102 8v88q0 55 -20 74t-65 19q-17 0 -33.5 -2t-29 -6t-20.5 -9.5
t-8 -12.5q0 -6 8 -10t17.5 -9t17.5 -15t8 -28q0 -26 -16 -43t-45 -17q-34 0 -49.5 19.5t-15.5 45.5q0 21 13 40t36 33.5t54.5 23t69.5 8.5q106 0 158 -37t52 -103v-235zM249 18q19 0 33.5 9.5t24.5 24.5t15.5 33t5.5 35v115l-71 -7q-20 -2 -35 -6t-24.5 -14t-14.5 -27
t-5 -45q0 -17 1 -33t3 -27q7 -32 24 -45t43 -13zM307 516l-131 139q-11 12 -17.5 23.5t-6.5 16.5q0 11 8.5 18t29.5 7q18 0 25 -5t13 -14q5 -8 28 -55t64 -130h-13z" />
    <glyph glyph-name="aacute" unicode="&#xe1;" 
d="M460 77q0 -18 4.5 -32.5t18.5 -14.5q18 0 26.5 17.5t8.5 38.5h18q0 -45 -29 -71.5t-78 -26.5q-34 0 -60 15.5t-40 47.5q-15 -29 -53 -46t-81 -17q-34 0 -62.5 8.5t-49 24t-32 38t-11.5 51.5q0 120 186 135l102 8v88q0 55 -20 74t-65 19q-17 0 -33.5 -2t-29 -6t-20.5 -9.5
t-8 -12.5q0 -6 8 -10t17.5 -9t17.5 -15t8 -28q0 -26 -16 -43t-45 -17q-34 0 -49.5 19.5t-15.5 45.5q0 21 13 40t36 33.5t54.5 23t69.5 8.5q106 0 158 -37t52 -103v-235zM249 18q19 0 33.5 9.5t24.5 24.5t15.5 33t5.5 35v115l-71 -7q-20 -2 -35 -6t-24.5 -14t-14.5 -27
t-5 -45q0 -17 1 -33t3 -27q7 -32 24 -45t43 -13zM404 695q0 -6 -7 -17.5t-16 -21.5l-132 -140h-13q40 81 61.5 125.5t27.5 54.5t12.5 17t27.5 7t30 -7t9 -18z" />
    <glyph glyph-name="acircumflex" unicode="&#xe2;" 
d="M460 77q0 -18 4.5 -32.5t18.5 -14.5q18 0 26.5 17.5t8.5 38.5h18q0 -45 -29 -71.5t-78 -26.5q-34 0 -60 15.5t-40 47.5q-15 -29 -53 -46t-81 -17q-34 0 -62.5 8.5t-49 24t-32 38t-11.5 51.5q0 120 186 135l102 8v88q0 55 -20 74t-65 19q-17 0 -33.5 -2t-29 -6t-20.5 -9.5
t-8 -12.5q0 -6 8 -10t17.5 -9t17.5 -15t8 -28q0 -26 -16 -43t-45 -17q-34 0 -49.5 19.5t-15.5 45.5q0 21 13 40t36 33.5t54.5 23t69.5 8.5q106 0 158 -37t52 -103v-235zM249 18q19 0 33.5 9.5t24.5 24.5t15.5 33t5.5 35v115l-71 -7q-20 -2 -35 -6t-24.5 -14t-14.5 -27
t-5 -45q0 -17 1 -33t3 -27q7 -32 24 -45t43 -13zM315 720l102 -204h-14l-122 130l-128 -130h-14l108 204h68z" />
    <glyph glyph-name="atilde" unicode="&#xe3;" 
d="M460 77q0 -18 4.5 -32.5t18.5 -14.5q18 0 26.5 17.5t8.5 38.5h18q0 -45 -29 -71.5t-78 -26.5q-34 0 -60 15.5t-40 47.5q-15 -29 -53 -46t-81 -17q-34 0 -62.5 8.5t-49 24t-32 38t-11.5 51.5q0 120 186 135l102 8v88q0 55 -20 74t-65 19q-17 0 -33.5 -2t-29 -6t-20.5 -9.5
t-8 -12.5q0 -6 8 -10t17.5 -9t17.5 -15t8 -28q0 -26 -16 -43t-45 -17q-34 0 -49.5 19.5t-15.5 45.5q0 21 13 40t36 33.5t54.5 23t69.5 8.5q106 0 158 -37t52 -103v-235zM249 18q19 0 33.5 9.5t24.5 24.5t15.5 33t5.5 35v115l-71 -7q-20 -2 -35 -6t-24.5 -14t-14.5 -27
t-5 -45q0 -17 1 -33t3 -27q7 -32 24 -45t43 -13zM436 685q-16 -60 -38.5 -87t-55.5 -27q-20 0 -41.5 5.5t-42.5 13.5q-23 8 -44 14.5t-40 6.5q-17 0 -25.5 -16t-10.5 -30h-18q17 61 38 89.5t54 28.5q14 0 32 -5.5t40 -13.5q26 -10 53.5 -18.5t46.5 -8.5q8 0 16.5 13t16.5 35
h19z" />
    <glyph glyph-name="adieresis" unicode="&#xe4;" 
d="M460 77q0 -18 4.5 -32.5t18.5 -14.5q18 0 26.5 17.5t8.5 38.5h18q0 -45 -29 -71.5t-78 -26.5q-34 0 -60 15.5t-40 47.5q-15 -29 -53 -46t-81 -17q-34 0 -62.5 8.5t-49 24t-32 38t-11.5 51.5q0 120 186 135l102 8v88q0 55 -20 74t-65 19q-17 0 -33.5 -2t-29 -6t-20.5 -9.5
t-8 -12.5q0 -6 8 -10t17.5 -9t17.5 -15t8 -28q0 -26 -16 -43t-45 -17q-34 0 -49.5 19.5t-15.5 45.5q0 21 13 40t36 33.5t54.5 23t69.5 8.5q106 0 158 -37t52 -103v-235zM249 18q19 0 33.5 9.5t24.5 24.5t15.5 33t5.5 35v115l-71 -7q-20 -2 -35 -6t-24.5 -14t-14.5 -27
t-5 -45q0 -17 1 -33t3 -27q7 -32 24 -45t43 -13zM254 626q0 -26 -18.5 -44.5t-44.5 -18.5t-44.5 18.5t-18.5 44.5t18.5 44.5t44.5 18.5t44.5 -18.5t18.5 -44.5zM428 626q0 -26 -18.5 -44.5t-44.5 -18.5t-44.5 18.5t-18.5 44.5t18.5 44.5t44.5 18.5t44.5 -18.5t18.5 -44.5z
" />
    <glyph glyph-name="aring" unicode="&#xe5;" 
d="M460 77q0 -18 4.5 -32.5t18.5 -14.5q18 0 26.5 17.5t8.5 38.5h18q0 -45 -29 -71.5t-78 -26.5q-34 0 -60 15.5t-40 47.5q-15 -29 -53 -46t-81 -17q-34 0 -62.5 8.5t-49 24t-32 38t-11.5 51.5q0 120 186 135l102 8v88q0 55 -20 74t-65 19q-17 0 -33.5 -2t-29 -6t-20.5 -9.5
t-8 -12.5q0 -6 8 -10t17.5 -9t17.5 -15t8 -28q0 -26 -16 -43t-45 -17q-34 0 -49.5 19.5t-15.5 45.5q0 21 13 40t36 33.5t54.5 23t69.5 8.5q106 0 158 -37t52 -103v-235zM249 18q19 0 33.5 9.5t24.5 24.5t15.5 33t5.5 35v115l-71 -7q-20 -2 -35 -6t-24.5 -14t-14.5 -27
t-5 -45q0 -17 1 -33t3 -27q7 -32 24 -45t43 -13zM378 601q0 -23 -8.5 -42.5t-23.5 -34t-34.5 -23t-41.5 -8.5q-23 0 -42.5 8.5t-34 23t-23 34t-8.5 42.5q0 22 8.5 41.5t23 34.5t34 23.5t42.5 8.5q22 0 42 -8.5t34.5 -23t23 -34.5t8.5 -42zM270 541q25 0 42.5 17.5t17.5 42.5
t-17.5 42.5t-43.5 17.5q-24 0 -41.5 -17.5t-17.5 -42.5t17.5 -42.5t42.5 -17.5z" />
    <glyph glyph-name="ae" unicode="&#xe6;" horiz-adv-x="777" 
d="M402 409q23 20 53 31.5t73 11.5t80.5 -17t65.5 -46t44 -67t17 -80h-293v-86q0 -70 29 -107t90 -37q60 0 100.5 40.5t57.5 110.5h18q-19 -87 -72 -131t-134 -44q-66 0 -119.5 28t-75.5 77h-2q-11 -46 -48 -75.5t-91 -29.5q-69 0 -112 32t-43 90q0 48 25 75t64.5 40.5
t88.5 18t98 8.5v89q0 51 -15.5 72t-57.5 21q-39 0 -65 -7t-26 -23q0 -6 8 -9t17.5 -8.5t17.5 -15t8 -29.5q0 -26 -16 -43t-45 -17q-34 0 -49.5 20t-15.5 50q0 24 13 42.5t36 31t54.5 19.5t69.5 7q40 0 80 -8.5t72 -34.5zM442 260h143v98q0 39 -18.5 57t-53.5 18
q-12 0 -24.5 -4t-23 -14.5t-17 -29t-6.5 -47.5v-78zM240 18q14 0 27.5 7.5t24.5 20t17.5 28.5t6.5 32v129q-11 -2 -24 -3t-26 -3q-15 -2 -29 -4.5t-25 -8.5q-16 -9 -25 -29t-9 -55q0 -40 4 -60q8 -34 23.5 -44t34.5 -10z" />
    <glyph glyph-name="ccedilla" unicode="&#xe7;" horiz-adv-x="500" 
d="M459 335q0 -27 -17.5 -48t-55.5 -21q-31 0 -48 19.5t-17 48.5q0 16 6 26.5t13 18t13 12.5t6 11q0 12 -18.5 22t-53.5 10q-55 0 -76 -34t-21 -110v-130q0 -9 0.5 -26.5t4 -37.5t11 -39t20.5 -31q11 -10 25.5 -15t37.5 -5q31 0 59 10.5t49.5 29t35.5 43.5t18 54h18
q-4 -36 -20 -64.5t-41 -48.5t-57 -31t-68 -11q-7 0 -10 1l-44 -73l2 -2q15 6 30 8t30 2q33 0 56.5 -18t23.5 -44q0 -38 -32.5 -58t-83.5 -20q-28 0 -53.5 6.5t-51.5 15.5l8 13q23 -8 38.5 -9.5t38.5 -1.5q27 0 42.5 13t15.5 39q0 15 -9 27.5t-29 12.5q-22 0 -41 -6l-17 7
l54 91q-48 5 -87 24.5t-66.5 50t-42.5 69.5t-15 82q0 45 20.5 87t54.5 75t78.5 52.5t93.5 19.5q30 0 60.5 -7.5t55 -22t40.5 -36.5t16 -51z" />
    <glyph glyph-name="eth" unicode="&#xf0;" 
d="M129 720q101 -12 173 -59l102 59l22 -20l-97 -56q45 -33 80 -75.5t59 -92t36 -104.5t12 -112q0 -62 -17 -112.5t-48.5 -86t-75.5 -54.5t-97 -19q-50 0 -93.5 17.5t-75.5 48t-50.5 73t-18.5 93.5q0 50 18.5 92.5t50.5 73.5t75 48.5t93 17.5q18 0 38.5 -5.5t36.5 -24.5h2
q-3 27 -14.5 55t-26 53t-29 44.5t-24.5 29.5l-98 -57l-21 20l98 57q-28 28 -59 48.5t-59 29.5zM196 97q0 -43 21.5 -67t60.5 -24t60.5 24t21.5 67v246q0 45 -21.5 68t-61.5 23q-36 0 -58.5 -23t-22.5 -68v-246z" />
    <glyph glyph-name="egrave" unicode="&#xe8;" horiz-adv-x="500" 
d="M190 242v-89q0 -75 25.5 -108t77.5 -33q60 0 100.5 40.5t57.5 110.5h18q-19 -87 -72 -131t-134 -44q-48 0 -89 17t-70.5 47.5t-46.5 72t-17 90.5q0 48 17 91t46.5 75.5t70.5 51.5t89 19q39 0 75 -17.5t64.5 -47t45.5 -67.5t18 -78h-276zM190 260h126v90q0 36 -13 60
t-50 24q-12 0 -23 -4t-20 -13.5t-14.5 -26t-5.5 -40.5v-90zM279 516l-131 139q-11 12 -17.5 23.5t-6.5 16.5q0 11 8.5 18t29.5 7q18 0 25 -5t13 -14q5 -8 28 -55t64 -130h-13z" />
    <glyph glyph-name="eacute" unicode="&#xe9;" horiz-adv-x="500" 
d="M190 242v-89q0 -75 25.5 -108t77.5 -33q60 0 100.5 40.5t57.5 110.5h18q-19 -87 -72 -131t-134 -44q-48 0 -89 17t-70.5 47.5t-46.5 72t-17 90.5q0 48 17 91t46.5 75.5t70.5 51.5t89 19q39 0 75 -17.5t64.5 -47t45.5 -67.5t18 -78h-276zM190 260h126v90q0 36 -13 60
t-50 24q-12 0 -23 -4t-20 -13.5t-14.5 -26t-5.5 -40.5v-90zM376 695q0 -6 -7 -17.5t-16 -21.5l-132 -140h-13q40 81 61.5 125.5t27.5 54.5t12.5 17t27.5 7t30 -7t9 -18z" />
    <glyph glyph-name="ecircumflex" unicode="&#xea;" horiz-adv-x="500" 
d="M190 242v-89q0 -75 25.5 -108t77.5 -33q60 0 100.5 40.5t57.5 110.5h18q-19 -87 -72 -131t-134 -44q-48 0 -89 17t-70.5 47.5t-46.5 72t-17 90.5q0 48 17 91t46.5 75.5t70.5 51.5t89 19q39 0 75 -17.5t64.5 -47t45.5 -67.5t18 -78h-276zM190 260h126v90q0 36 -13 60
t-50 24q-12 0 -23 -4t-20 -13.5t-14.5 -26t-5.5 -40.5v-90zM287 720l102 -204h-14l-122 130l-128 -130h-14l108 204h68z" />
    <glyph glyph-name="edieresis" unicode="&#xeb;" horiz-adv-x="500" 
d="M190 242v-89q0 -75 25.5 -108t77.5 -33q60 0 100.5 40.5t57.5 110.5h18q-19 -87 -72 -131t-134 -44q-48 0 -89 17t-70.5 47.5t-46.5 72t-17 90.5q0 48 17 91t46.5 75.5t70.5 51.5t89 19q39 0 75 -17.5t64.5 -47t45.5 -67.5t18 -78h-276zM190 260h126v90q0 36 -13 60
t-50 24q-12 0 -23 -4t-20 -13.5t-14.5 -26t-5.5 -40.5v-90zM226 626q0 -26 -18.5 -44.5t-44.5 -18.5t-44.5 18.5t-18.5 44.5t18.5 44.5t44.5 18.5t44.5 -18.5t18.5 -44.5zM400 626q0 -26 -18.5 -44.5t-44.5 -18.5t-44.5 18.5t-18.5 44.5t18.5 44.5t44.5 18.5t44.5 -18.5
t18.5 -44.5z" />
    <glyph glyph-name="dotlessi" unicode="&#x131;" horiz-adv-x="334" 
d="M236 18h69v-18h-276v18h69v404h-69v18h80q57 0 87.5 7t39.5 19v-448z" />
    <glyph glyph-name="igrave" unicode="&#xec;" horiz-adv-x="334" 
d="M236 18h69v-18h-276v18h69v404h-69v18h80q57 0 87.5 7t39.5 19v-448zM196 516l-131 139q-11 12 -17.5 23.5t-6.5 16.5q0 11 8.5 18t29.5 7q18 0 25 -5t13 -14q5 -8 28 -55t64 -130h-13z" />
    <glyph glyph-name="iacute" unicode="&#xed;" horiz-adv-x="334" 
d="M236 18h69v-18h-276v18h69v404h-69v18h80q57 0 87.5 7t39.5 19v-448zM293 695q0 -6 -7 -17.5t-16 -21.5l-132 -140h-13q40 81 61.5 125.5t27.5 54.5t12.5 17t27.5 7t30 -7t9 -18z" />
    <glyph glyph-name="icircumflex" unicode="&#xee;" horiz-adv-x="334" 
d="M236 18h69v-18h-276v18h69v404h-69v18h80q57 0 87.5 7t39.5 19v-448zM204 720l102 -204h-14l-122 130l-128 -130h-14l108 204h68z" />
    <glyph glyph-name="idieresis" unicode="&#xef;" horiz-adv-x="334" 
d="M236 18h69v-18h-276v18h69v404h-69v18h80q57 0 87.5 7t39.5 19v-448zM143 626q0 -26 -18.5 -44.5t-44.5 -18.5t-44.5 18.5t-18.5 44.5t18.5 44.5t44.5 18.5t44.5 -18.5t18.5 -44.5zM317 626q0 -26 -18.5 -44.5t-44.5 -18.5t-44.5 18.5t-18.5 44.5t18.5 44.5t44.5 18.5
t44.5 -18.5t18.5 -44.5z" />
    <glyph glyph-name="uni0237" unicode="&#x237;" horiz-adv-x="334" 
d="M236 -63q0 -43 -13.5 -80t-36.5 -64t-54 -42.5t-67 -15.5q-44 0 -66.5 19.5t-22.5 51.5q0 25 17 40.5t40 15.5q27 0 42 -17.5t15 -43.5q0 -11 -3.5 -19.5t-11.5 -19.5q2 -2 6.5 -2.5t6.5 -0.5q17 0 29.5 14.5t12.5 40.5q0 22 -5 42.5t-11 43t-11 49t-5 59.5v414h-69v18
h78q57 0 88.5 6.5t40.5 19.5v-529z" />
    <glyph glyph-name="ntilde" unicode="&#xf1;" horiz-adv-x="611" 
d="M223 359h2q19 42 63.5 67.5t96.5 25.5q73 0 107 -38t34 -113v-283h69v-18h-264v18h57v320q0 36 -13.5 57t-45.5 21q-20 0 -39 -12t-34 -30t-24 -40t-9 -41v-275h59v-18h-266v18h69v404h-69v18h78q57 0 88.5 6.5t40.5 19.5v-107zM464 685q-16 -60 -38.5 -87t-55.5 -27
q-20 0 -41.5 5.5t-42.5 13.5q-23 8 -44 14.5t-40 6.5q-17 0 -25.5 -16t-10.5 -30h-18q17 61 38 89.5t54 28.5q14 0 32 -5.5t40 -13.5q26 -10 53.5 -18.5t46.5 -8.5q8 0 16.5 13t16.5 35h19z" />
    <glyph glyph-name="ograve" unicode="&#xf2;" 
d="M516 220q0 -50 -18 -92t-49.5 -73.5t-75.5 -49t-95 -17.5q-50 0 -93.5 17.5t-75.5 48t-50.5 73t-18.5 93.5q0 50 18 92.5t50 73.5t75.5 48.5t94.5 17.5t95 -17.5t75.5 -49t49.5 -74t18 -91.5zM196 108q0 -52 21.5 -77t60.5 -25t60.5 25.5t21.5 77.5v223q0 51 -21.5 76.5
t-61.5 25.5q-35 0 -58 -24t-23 -79v-223zM307 516l-131 139q-11 12 -17.5 23.5t-6.5 16.5q0 11 8.5 18t29.5 7q18 0 25 -5t13 -14q5 -8 28 -55t64 -130h-13z" />
    <glyph glyph-name="oacute" unicode="&#xf3;" 
d="M516 220q0 -50 -18 -92t-49.5 -73.5t-75.5 -49t-95 -17.5q-50 0 -93.5 17.5t-75.5 48t-50.5 73t-18.5 93.5q0 50 18 92.5t50 73.5t75.5 48.5t94.5 17.5t95 -17.5t75.5 -49t49.5 -74t18 -91.5zM196 108q0 -52 21.5 -77t60.5 -25t60.5 25.5t21.5 77.5v223q0 51 -21.5 76.5
t-61.5 25.5q-35 0 -58 -24t-23 -79v-223zM404 695q0 -6 -7 -17.5t-16 -21.5l-132 -140h-13q40 81 61.5 125.5t27.5 54.5t12.5 17t27.5 7t30 -7t9 -18z" />
    <glyph glyph-name="ocircumflex" unicode="&#xf4;" 
d="M516 220q0 -50 -18 -92t-49.5 -73.5t-75.5 -49t-95 -17.5q-50 0 -93.5 17.5t-75.5 48t-50.5 73t-18.5 93.5q0 50 18 92.5t50 73.5t75.5 48.5t94.5 17.5t95 -17.5t75.5 -49t49.5 -74t18 -91.5zM196 108q0 -52 21.5 -77t60.5 -25t60.5 25.5t21.5 77.5v223q0 51 -21.5 76.5
t-61.5 25.5q-35 0 -58 -24t-23 -79v-223zM315 720l102 -204h-14l-122 130l-128 -130h-14l108 204h68z" />
    <glyph glyph-name="otilde" unicode="&#xf5;" 
d="M516 220q0 -50 -18 -92t-49.5 -73.5t-75.5 -49t-95 -17.5q-50 0 -93.5 17.5t-75.5 48t-50.5 73t-18.5 93.5q0 50 18 92.5t50 73.5t75.5 48.5t94.5 17.5t95 -17.5t75.5 -49t49.5 -74t18 -91.5zM196 108q0 -52 21.5 -77t60.5 -25t60.5 25.5t21.5 77.5v223q0 51 -21.5 76.5
t-61.5 25.5q-35 0 -58 -24t-23 -79v-223zM436 685q-16 -60 -38.5 -87t-55.5 -27q-20 0 -41.5 5.5t-42.5 13.5q-23 8 -44 14.5t-40 6.5q-17 0 -25.5 -16t-10.5 -30h-18q17 61 38 89.5t54 28.5q14 0 32 -5.5t40 -13.5q26 -10 53.5 -18.5t46.5 -8.5q8 0 16.5 13t16.5 35h19z
" />
    <glyph glyph-name="odieresis" unicode="&#xf6;" 
d="M516 220q0 -50 -18 -92t-49.5 -73.5t-75.5 -49t-95 -17.5q-50 0 -93.5 17.5t-75.5 48t-50.5 73t-18.5 93.5q0 50 18 92.5t50 73.5t75.5 48.5t94.5 17.5t95 -17.5t75.5 -49t49.5 -74t18 -91.5zM196 108q0 -52 21.5 -77t60.5 -25t60.5 25.5t21.5 77.5v223q0 51 -21.5 76.5
t-61.5 25.5q-35 0 -58 -24t-23 -79v-223zM254 626q0 -26 -18.5 -44.5t-44.5 -18.5t-44.5 18.5t-18.5 44.5t18.5 44.5t44.5 18.5t44.5 -18.5t18.5 -44.5zM428 626q0 -26 -18.5 -44.5t-44.5 -18.5t-44.5 18.5t-18.5 44.5t18.5 44.5t44.5 18.5t44.5 -18.5t18.5 -44.5z" />
    <glyph glyph-name="oslash" unicode="&#xf8;" 
d="M411 462l-19 -37q57 -29 90.5 -81.5t33.5 -123.5q0 -51 -18.5 -93.5t-50.5 -73.5t-75.5 -48t-93.5 -17q-58 0 -103 22l-22 -43l-22 12l22 43q-52 29 -82.5 80.5t-30.5 117.5q0 51 18.5 93.5t50.5 73.5t75.5 48t93.5 17t91 -16l19 37zM196 104h2l150 292q-20 38 -71 38
q-35 0 -58 -23.5t-23 -78.5v-228zM201 60q5 -25 24.5 -39.5t52.5 -14.5q39 0 60.5 25.5t21.5 77.5v252h-2z" />
    <glyph glyph-name="oe" unicode="&#x153;" horiz-adv-x="833" 
d="M428 393q65 59 148 59q43 0 80.5 -17t65.5 -46t44 -67t17 -80h-293v-88q0 -69 29 -105.5t90 -36.5q60 0 100.5 40.5t57.5 110.5h18q-20 -88 -72.5 -131.5t-133.5 -43.5q-39 0 -80.5 15t-70.5 40q-34 -26 -69.5 -40.5t-80.5 -14.5q-50 0 -93.5 17.5t-75.5 48t-50.5 73
t-18.5 93.5t18.5 93.5t50.5 73.5t75.5 48t93.5 17q40 0 78.5 -15t69.5 -44h2zM196 98q0 -45 21 -68.5t60 -23.5q43 0 65 24t22 69v223q0 112 -88 112q-36 0 -58 -23t-22 -68v-245zM490 260h143v98q0 39 -18.5 57t-53.5 18q-12 0 -24.5 -4t-23 -14.5t-17 -28.5t-6.5 -47v-79z
" />
    <glyph glyph-name="scaron" unicode="&#x161;" horiz-adv-x="444" 
d="M307 430q14 0 22.5 6.5t8.5 15.5h15l6 -142h-16q-47 124 -140 124q-42 0 -68.5 -20t-26.5 -55q0 -23 12.5 -34.5t33.5 -17.5t48.5 -9t57.5 -9q71 -13 100.5 -43.5t29.5 -92.5q0 -33 -12.5 -63t-34 -52.5t-50.5 -36t-63 -13.5q-22 0 -38.5 3.5t-29.5 8t-23.5 8.5t-21.5 4
q-15 0 -26 -6t-15 -18h-18v168h18q8 -32 23.5 -59t36.5 -47.5t45.5 -32t50.5 -11.5q42 0 70 23t28 63q0 31 -20.5 43t-75.5 18q-39 5 -69 11t-52 19q-59 35 -59 119q0 29 10.5 56t30 48t46.5 33.5t60 12.5q18 0 32.5 -3.5t26.5 -7.5t23.5 -7.5t23.5 -3.5zM83 720h14
l122 -130l128 130h14l-108 -204h-68z" />
    <glyph glyph-name="germandbls" unicode="&#xdf;" horiz-adv-x="611" 
d="M512 578q0 -40 -20 -72.5t-43.5 -58t-43.5 -43t-20 -27.5q0 -7 13.5 -12.5t44.5 -16.5q30 -10 55 -23.5t43 -31.5t28 -42t10 -55q0 -100 -38.5 -151t-111.5 -51q-30 0 -56 8t-44.5 22.5t-29.5 35.5t-11 47q0 27 16.5 47t42.5 20q67 0 67 -60q0 -21 -8.5 -33t-19 -20
t-19 -14t-8.5 -15q0 -10 21 -18t47 -8q20 0 39.5 6.5t35.5 19.5t25.5 30.5t9.5 40.5q0 36 -27 58t-82 44t-82 44t-27 58q0 29 17.5 50t48.5 52q32 32 49.5 70t17.5 89q0 69 -23.5 101.5t-80.5 32.5q-62 0 -87 -33.5t-25 -86.5v-564h56v-18h-263v18h69v420q0 56 14.5 107
t44.5 90t74.5 62t104.5 23q84 0 130 -36.5t46 -105.5z" />
    <glyph glyph-name="thorn" unicode="&#xfe;" horiz-adv-x="611" 
d="M223 382l2 -7q20 40 52 58.5t72 18.5q48 0 87 -18t67 -50.5t43.5 -76.5t15.5 -95q0 -50 -18 -91t-47.5 -70.5t-67.5 -46t-78 -16.5q-49 0 -78 19t-48 54h-2v-308h76v-18h-283v18h69v933h-69v18h72q20 0 41.5 0.5t40 3.5t33 9t20.5 18v-353zM223 131q0 -23 7.5 -44t21 -38
t32.5 -27t43 -10q43 0 64 32.5t21 92.5v191q0 40 -20 70t-62 30q-25 0 -44.5 -11t-33.5 -28.5t-21.5 -38.5t-7.5 -41v-178z" />
    <glyph glyph-name="ugrave" unicode="&#xf9;" horiz-adv-x="611" 
d="M223 114q0 -39 10.5 -64.5t47.5 -25.5q22 0 41.5 13t34 33t23 44t8.5 45v263h-69v18h78q57 0 88.5 6.5t40.5 19.5v-448h69v-18h-207v84h-2q-20 -46 -65 -71t-95 -25q-73 0 -107 38t-34 113v283h-69v18h78q57 0 88.5 6.5t40.5 19.5v-352zM335 516l-131 139
q-11 12 -17.5 23.5t-6.5 16.5q0 11 8.5 18t29.5 7q18 0 25 -5t13 -14q5 -8 28 -55t64 -130h-13z" />
    <glyph glyph-name="uacute" unicode="&#xfa;" horiz-adv-x="611" 
d="M223 114q0 -39 10.5 -64.5t47.5 -25.5q22 0 41.5 13t34 33t23 44t8.5 45v263h-69v18h78q57 0 88.5 6.5t40.5 19.5v-448h69v-18h-207v84h-2q-20 -46 -65 -71t-95 -25q-73 0 -107 38t-34 113v283h-69v18h78q57 0 88.5 6.5t40.5 19.5v-352zM432 695q0 -6 -7 -17.5t-16 -21.5
l-132 -140h-13q40 81 61.5 125.5t27.5 54.5t12.5 17t27.5 7t30 -7t9 -18z" />
    <glyph glyph-name="ucircumflex" unicode="&#xfb;" horiz-adv-x="611" 
d="M223 114q0 -39 10.5 -64.5t47.5 -25.5q22 0 41.5 13t34 33t23 44t8.5 45v263h-69v18h78q57 0 88.5 6.5t40.5 19.5v-448h69v-18h-207v84h-2q-20 -46 -65 -71t-95 -25q-73 0 -107 38t-34 113v283h-69v18h78q57 0 88.5 6.5t40.5 19.5v-352zM343 720l102 -204h-14l-122 130
l-128 -130h-14l108 204h68z" />
    <glyph glyph-name="udieresis" unicode="&#xfc;" horiz-adv-x="611" 
d="M223 114q0 -39 10.5 -64.5t47.5 -25.5q22 0 41.5 13t34 33t23 44t8.5 45v263h-69v18h78q57 0 88.5 6.5t40.5 19.5v-448h69v-18h-207v84h-2q-20 -46 -65 -71t-95 -25q-73 0 -107 38t-34 113v283h-69v18h78q57 0 88.5 6.5t40.5 19.5v-352zM282 626q0 -26 -18.5 -44.5
t-44.5 -18.5t-44.5 18.5t-18.5 44.5t18.5 44.5t44.5 18.5t44.5 -18.5t18.5 -44.5zM456 626q0 -26 -18.5 -44.5t-44.5 -18.5t-44.5 18.5t-18.5 44.5t18.5 44.5t44.5 18.5t44.5 -18.5t18.5 -44.5z" />
    <glyph glyph-name="yacute" unicode="&#xfd;" horiz-adv-x="500" 
d="M265 440v-18h-66l117 -263q30 71 47.5 112t26 64t11 33t2.5 19q0 14 -11 24.5t-38 10.5h-18v18h156v-18h-7q-16 0 -31 -16t-34 -59q-32 -73 -56.5 -127t-38.5 -87q-14 -32 -22.5 -54t-14.5 -37.5t-10.5 -26.5t-8.5 -21q-6 -23 -11.5 -50.5t-11.5 -54t-12.5 -50.5
t-14.5 -39q-29 -57 -85 -57q-33 0 -57.5 19.5t-24.5 50.5q0 29 16.5 48.5t49.5 19.5q32 0 49 -17t17 -43q0 -7 -1 -15t-4 -19v-3q16 4 33 49.5t30 143.5l-192 445h-42v18h257zM376 695q0 -6 -7 -17.5t-16 -21.5l-132 -140h-13q40 81 61.5 125.5t27.5 54.5t12.5 17t27.5 7
t30 -7t9 -18z" />
    <glyph glyph-name="ydieresis" unicode="&#xff;" horiz-adv-x="500" 
d="M265 440v-18h-66l117 -263q30 71 47.5 112t26 64t11 33t2.5 19q0 14 -11 24.5t-38 10.5h-18v18h156v-18h-7q-16 0 -31 -16t-34 -59q-32 -73 -56.5 -127t-38.5 -87q-14 -32 -22.5 -54t-14.5 -37.5t-10.5 -26.5t-8.5 -21q-6 -23 -11.5 -50.5t-11.5 -54t-12.5 -50.5
t-14.5 -39q-29 -57 -85 -57q-33 0 -57.5 19.5t-24.5 50.5q0 29 16.5 48.5t49.5 19.5q32 0 49 -17t17 -43q0 -7 -1 -15t-4 -19v-3q16 4 33 49.5t30 143.5l-192 445h-42v18h257zM226 626q0 -26 -18.5 -44.5t-44.5 -18.5t-44.5 18.5t-18.5 44.5t18.5 44.5t44.5 18.5t44.5 -18.5
t18.5 -44.5zM400 626q0 -26 -18.5 -44.5t-44.5 -18.5t-44.5 18.5t-18.5 44.5t18.5 44.5t44.5 18.5t44.5 -18.5t18.5 -44.5z" />
    <glyph glyph-name="zcaron" unicode="&#x17e;" horiz-adv-x="500" 
d="M454 440v-12l-265 -410h70q32 0 61.5 12.5t52.5 35t37 53t14 67.5v14h18v-200h-410v12l260 410h-47q-37 0 -60 -6.5t-44 -20.5q-29 -20 -48.5 -55t-19.5 -72v-12h-18v184h399zM121 720h14l122 -130l128 130h14l-108 -204h-68z" />
    <glyph glyph-name="acute" unicode="&#xb4;" horiz-adv-x="278" 
d="M265 695q0 -6 -7 -17.5t-16 -21.5l-132 -140h-13q40 81 61.5 125.5t27.5 54.5t12.5 17t27.5 7t30 -7t9 -18z" />
    <glyph glyph-name="circumflex" unicode="&#x2c6;" horiz-adv-x="278" 
d="M176 720l102 -204h-14l-122 130l-128 -130h-14l108 204h68z" />
    <glyph glyph-name="tilde" unicode="&#x2dc;" horiz-adv-x="278" 
d="M297 685q-16 -60 -38.5 -87t-55.5 -27q-20 0 -41.5 5.5t-42.5 13.5q-23 8 -44 14.5t-40 6.5q-17 0 -25.5 -16t-10.5 -30h-18q17 61 38 89.5t54 28.5q14 0 32 -5.5t40 -13.5q26 -10 53.5 -18.5t46.5 -8.5q8 0 16.5 13t16.5 35h19z" />
    <glyph glyph-name="dieresis" unicode="&#xa8;" horiz-adv-x="278" 
d="M115 626q0 -26 -18.5 -44.5t-44.5 -18.5t-44.5 18.5t-18.5 44.5t18.5 44.5t44.5 18.5t44.5 -18.5t18.5 -44.5zM289 626q0 -26 -18.5 -44.5t-44.5 -18.5t-44.5 18.5t-18.5 44.5t18.5 44.5t44.5 18.5t44.5 -18.5t18.5 -44.5z" />
    <glyph glyph-name="macron" unicode="&#xaf;" horiz-adv-x="278" 
d="M299 655v-66h-320v66h320z" />
    <glyph glyph-name="cedilla" unicode="&#xb8;" horiz-adv-x="278" 
d="M145 0h24l-51 -84l2 -2q15 6 29.5 8t29.5 2q33 0 57 -18t24 -44q0 -38 -33.5 -58t-84.5 -20q-28 0 -52.5 6.5t-50.5 15.5l8 13q23 -8 38.5 -9.5t38.5 -1.5q27 0 42.5 13t15.5 39q0 15 -9 27.5t-29 12.5q-22 0 -41 -6l-17 7z" />
    <glyph glyph-name="ellipsis" unicode="&#x2026;" horiz-adv-x="1000" 
d="M248 69q0 -34 -23.5 -57.5t-57.5 -23.5t-57.5 23.5t-23.5 57.5t23.5 57.5t57.5 23.5t57.5 -23.5t23.5 -57.5zM581 69q0 -34 -23.5 -57.5t-57.5 -23.5t-57.5 23.5t-23.5 57.5t23.5 57.5t57.5 23.5t57.5 -23.5t23.5 -57.5zM914 69q0 -34 -23.5 -57.5t-57.5 -23.5
t-57.5 23.5t-23.5 57.5t23.5 57.5t57.5 23.5t57.5 -23.5t23.5 -57.5z" />
    <glyph glyph-name="uni00AD" unicode="&#xad;" horiz-adv-x="444" 
d="M91 299q42 -2 79.5 -3t76.5 -1q36 0 71 1t72 3l-37 -92q-52 2 -91 3t-73 1q-36 0 -68 -1.5t-67 -2.5z" />
    <glyph glyph-name="exclamdown" unicode="&#xa1;" horiz-adv-x="334" 
d="M248 378q0 -34 -23.5 -57.5t-57.5 -23.5t-57.5 23.5t-23.5 57.5t23.5 57.5t57.5 23.5t57.5 -23.5t23.5 -57.5zM179 266q1 -59 3.5 -111.5t7.5 -99.5q6 -63 25 -113t48 -85q-35 -19 -61.5 -49.5t-34.5 -72.5q-8 42 -34.5 73t-61.5 49q31 38 48 85.5t24 106.5q11 95 12 217
h24z" />
    <glyph glyph-name="questiondown" unicode="&#xbf;" 
d="M409 378q0 -34 -23.5 -57.5t-57.5 -23.5t-57.5 23.5t-23.5 57.5t23.5 57.5t57.5 23.5t57.5 -23.5t23.5 -57.5zM342 269v-156q0 -37 -8 -54t-18 -26q-20 -18 -37.5 -33t-37.5 -32q-27 -24 -42.5 -50.5t-15.5 -52.5q0 -51 33.5 -81.5t82.5 -30.5q33 0 60 14t27 35
q0 15 -24 15h-7q-25 0 -43.5 19t-18.5 51q0 33 23 50.5t54 17.5q38 0 60 -27t22 -64q0 -29 -12.5 -53t-35.5 -41t-54.5 -26t-68.5 -9q-39 0 -71.5 13.5t-56 38t-36 58t-12.5 74.5q0 57 29 102t89 94q29 24 48.5 42t31 33t16.5 29.5t5 31.5v18h18z" />
    <glyph glyph-name="quoteleft" unicode="&#x2018;" horiz-adv-x="278" 
d="M209 703q-30 -6 -54 -21.5t-41 -37.5t-26 -49t-9 -57h2q11 13 27 21.5t39 8.5q38 0 57 -23.5t19 -57.5q0 -32 -22.5 -56.5t-57.5 -24.5q-42 0 -65 29t-23 83q0 78 39.5 133t114.5 69v-17z" />
    <glyph glyph-name="quoteright" unicode="&#x2019;" horiz-adv-x="278" 
d="M69 423q30 6 54 21.5t41 37.5t26 49t9 57h-2q-11 -13 -27 -21.5t-39 -8.5q-38 0 -57 23.5t-19 57.5q0 32 22.5 56.5t57.5 24.5q42 0 65 -29t23 -83q0 -78 -39.5 -133t-114.5 -69v17z" />
    <glyph glyph-name="quotedblleft" unicode="&#x201c;" horiz-adv-x="500" 
d="M209 703q-30 -6 -54 -21.5t-41 -37.5t-26 -49t-9 -57h2q11 13 27 21.5t39 8.5q38 0 57 -23.5t19 -57.5q0 -32 -22.5 -56.5t-57.5 -24.5q-42 0 -65 29t-23 83q0 78 39.5 133t114.5 69v-17zM431 703q-30 -6 -54 -21.5t-41 -37.5t-26 -49t-9 -57h2q11 13 27 21.5t39 8.5
q38 0 57 -23.5t19 -57.5q0 -32 -22.5 -56.5t-57.5 -24.5q-42 0 -65 29t-23 83q0 78 39.5 133t114.5 69v-17z" />
    <glyph glyph-name="quotedblright" unicode="&#x201d;" horiz-adv-x="500" 
d="M69 423q30 6 54 21.5t41 37.5t26 49t9 57h-2q-11 -13 -27 -21.5t-39 -8.5q-38 0 -57 23.5t-19 57.5q0 32 22.5 56.5t57.5 24.5q42 0 65 -29t23 -83q0 -78 -39.5 -133t-114.5 -69v17zM291 423q30 6 54 21.5t41 37.5t26 49t9 57h-2q-11 -13 -27 -21.5t-39 -8.5
q-38 0 -57 23.5t-19 57.5q0 32 22.5 56.5t57.5 24.5q42 0 65 -29t23 -83q0 -78 -39.5 -133t-114.5 -69v17z" />
    <glyph glyph-name="quotesinglbase" unicode="&#x201a;" horiz-adv-x="278" 
d="M69 -147q30 6 54 21.5t41 37.5t26 49t9 57h-2q-11 -13 -27 -21.5t-39 -8.5q-38 0 -57 23.5t-19 57.5q0 32 22.5 56.5t57.5 24.5q42 0 65 -29t23 -83q0 -78 -39.5 -133t-114.5 -69v17z" />
    <glyph glyph-name="quotedblbase" unicode="&#x201e;" horiz-adv-x="500" 
d="M69 -147q30 6 54 21.5t41 37.5t26 49t9 57h-2q-11 -13 -27 -21.5t-39 -8.5q-38 0 -57 23.5t-19 57.5q0 32 22.5 56.5t57.5 24.5q42 0 65 -29t23 -83q0 -78 -39.5 -133t-114.5 -69v17zM291 -147q30 6 54 21.5t41 37.5t26 49t9 57h-2q-11 -13 -27 -21.5t-39 -8.5
q-38 0 -57 23.5t-19 57.5q0 32 22.5 56.5t57.5 24.5q42 0 65 -29t23 -83q0 -78 -39.5 -133t-114.5 -69v17z" />
    <glyph glyph-name="guilsinglleft" unicode="&#x2039;" horiz-adv-x="278" 
d="M193 424l36 -30l-116 -141l116 -140l-36 -31l-144 171z" />
    <glyph glyph-name="guilsinglright" unicode="&#x203a;" horiz-adv-x="278" 
d="M85 424l144 -171l-144 -171l-36 30l116 141l-116 140z" />
    <glyph glyph-name="guillemotleft" unicode="&#xab;" horiz-adv-x="500" 
d="M232 424l36 -30l-116 -141l116 -140l-36 -31l-144 171zM376 424l36 -30l-116 -141l116 -140l-36 -31l-144 171z" />
    <glyph glyph-name="guillemotright" unicode="&#xbb;" horiz-adv-x="500" 
d="M124 424l144 -171l-144 -171l-36 30l116 141l-116 140zM268 424l144 -171l-144 -171l-36 30l116 141l-116 140z" />
    <glyph glyph-name="endash" unicode="&#x2013;" horiz-adv-x="500" 
d="M500 292v-78h-500v78h500z" />
    <glyph glyph-name="emdash" unicode="&#x2014;" horiz-adv-x="1000" 
d="M1000 292v-78h-1000v78h1000z" />
    <glyph glyph-name="bullet" unicode="&#x2022;" horiz-adv-x="500" 
d="M426 352q0 -35 -13.5 -67t-37 -56t-56 -38.5t-69.5 -14.5t-69 14t-56 38t-37.5 56t-13.5 68q0 35 13.5 67t37.5 56t56 38.5t69 14.5q38 0 70 -14.5t55.5 -38.5t37 -56t13.5 -67z" />
    <glyph glyph-name="periodcentered" unicode="&#xb7;" horiz-adv-x="278" 
d="M211 299q0 -30 -21 -51t-51 -21t-51 21t-21 51t21 51t51 21t51 -21t21 -51z" />
    <glyph glyph-name="dagger" unicode="&#x2020;" 
d="M296 680q2 -41 16 -41q10 0 20 6t18 6q11 0 11 -15q0 -7 -11 -28.5t-25 -56.5q-17 -40 -27.5 -86t-10.5 -90q50 0 113 40q31 20 46.5 30.5t20.5 10.5q10 0 10 -11t-5 -21.5t-5 -21.5q0 -7 5 -10.5t12.5 -5t16.5 -2t17 -1.5q9 -1 16 -5t7 -12t-6 -12t-15 -5
q-8 -1 -17.5 -1.5t-17.5 -2t-13 -5t-5 -10.5q0 -11 5 -21.5t5 -21.5t-10 -11q-6 0 -20 10t-45 30t-61.5 30.5t-53.5 10.5q1 -118 8 -201.5t17 -140.5q8 -49 17.5 -81.5t18 -53t14 -31t5.5 -15.5q0 -11 -11 -11t-21.5 5.5t-21.5 5.5q-8 0 -10 -13t-4 -28.5t-6 -28.5t-15 -13
q-12 0 -15.5 13t-5 28.5t-3.5 28.5t-11 13q-11 0 -21 -5.5t-22 -5.5q-11 0 -11 11q0 5 4.5 13.5t11.5 25.5q10 23 20.5 58.5t20 91.5t16 137.5t7.5 196.5q-23 0 -52.5 -10t-60.5 -30t-46.5 -30.5t-20.5 -10.5q-10 0 -10 11t5 21.5t5 21.5t-12.5 14t-25.5 4q-5 0 -11 0.5
t-11.5 2t-9.5 5t-4 10.5q0 14 15 15.5t32 3.5q9 1 18 4t9 13q0 11 -5 21.5t-5 21.5t10 11q7 0 21.5 -11t45.5 -30t59 -29.5t54 -10.5q0 42 -10 86t-27 87q-17 44 -27 62.5t-10 24.5q0 16 11 16q8 0 18 -6t20 -6t12.5 12.5t3.5 28t4 28t14 12.5q17 0 18 -40z" />
    <glyph glyph-name="daggerdbl" unicode="&#x2021;" 
d="M313 646q11 0 21 4.5t18 4.5q9 0 9 -11q0 -5 -10.5 -21.5t-27.5 -50.5q-17 -35 -26.5 -70.5t-9.5 -72.5q36 0 65 11.5t51 26t35.5 26t18.5 11.5q13 0 13 -10q0 -11 -6 -20.5t-6 -20.5q0 -7 11.5 -9t25.5 -4t25.5 -6t11.5 -14q0 -13 -11.5 -16.5t-25.5 -4.5t-25.5 -2
t-11.5 -10q0 -11 6 -20.5t6 -20.5q0 -10 -13 -10q-5 0 -17 10.5t-38 27.5t-54.5 27t-60.5 10q0 -54 16 -94.5t51 -80.5q-36 -40 -51.5 -80.5t-15.5 -94.5q35 0 64.5 11.5t51 26t35.5 26t18 11.5q14 0 14 -10q0 -11 -6 -20.5t-6 -20.5q0 -8 10.5 -10t24.5 -2q10 0 24.5 -4
t14.5 -17t-14 -17t-30 -4q-11 0 -20.5 -2.5t-9.5 -9.5q0 -11 6 -20.5t6 -20.5q0 -10 -13 -10q-6 0 -18 11t-37 27q-26 16 -53.5 26.5t-61.5 10.5q0 -38 10 -74t27 -71q17 -34 27 -49.5t10 -20.5q0 -11 -9 -11q-8 0 -18 4.5t-21 4.5q-9 0 -11 -13.5t-3 -29.5q-1 -11 -6 -21
t-15 -10q-9 0 -14 8t-6 19q-2 17 -3.5 32t-11.5 15q-11 0 -21 -4.5t-18 -4.5q-9 0 -9 11q0 6 11.5 23.5t25 45t25 64.5t12.5 82q-37 0 -66 -12t-50 -25.5t-34.5 -25.5t-19.5 -12q-13 0 -13 10q0 11 6 20.5t6 20.5q0 7 -10.5 9.5t-21.5 2.5q-5 0 -12.5 0.5t-14 3t-11 6.5
t-4.5 11q0 11 13 16t26 5q14 0 24.5 2t10.5 10q0 11 -6 20.5t-6 20.5q0 10 13 10q7 0 19.5 -12t38.5 -28q28 -17 54.5 -26t57.5 -9q0 54 -16 94.5t-51 80.5q36 40 51.5 80.5t15.5 94.5q-36 0 -65.5 -12t-51 -26t-35 -25.5t-18.5 -11.5q-13 0 -13 10q0 11 6 20.5t6 20.5
q0 8 -10 10t-26 2q-15 0 -26.5 5.5t-11.5 15.5q0 11 11.5 15.5t26.5 5.5t25.5 2.5t10.5 9.5q0 11 -6 20.5t-6 20.5q0 10 13 10q5 0 18 -11t39 -28t53.5 -26.5t59.5 -9.5q0 38 -9.5 73.5t-26.5 69.5q-17 35 -27.5 50t-10.5 23q0 10 9 10q8 0 18 -4.5t21 -4.5q10 0 11.5 15.5
t3.5 31.5q2 11 6.5 19t13.5 8q17 0 20 -26q2 -17 3.5 -32.5t11.5 -15.5z" />
    <glyph glyph-name="section" unicode="&#xa7;" 
d="M455 606q0 -35 -21.5 -60.5t-56.5 -25.5q-29 0 -47.5 17.5t-18.5 45.5q0 29 17 46t39 17q13 0 21 -5t14 -11t10.5 -11t10.5 -5q8 0 8 18q0 12 -9.5 24.5t-27 22.5t-42.5 16.5t-55 6.5q-29 0 -53.5 -8t-42.5 -23t-28.5 -36t-10.5 -48q0 -29 12 -50.5t34 -39t53 -32
t69 -29.5q41 -16 73.5 -33t55 -38t34.5 -47.5t12 -61.5q0 -29 -5 -52.5t-16 -45.5t-28 -43.5t-41 -45.5q38 -22 54 -53t16 -69q0 -48 -15 -87t-43 -66.5t-66.5 -43t-85.5 -15.5q-34 0 -64.5 8t-53 24t-35.5 39t-13 52q0 32 20.5 54t48.5 22q31 0 49 -18t18 -45
q0 -26 -16 -41.5t-38 -15.5q-19 0 -28.5 6.5t-14.5 6.5q-9 0 -9 -11q0 -12 12 -23t31.5 -20t42.5 -14.5t46 -5.5q69 0 111.5 30t42.5 86q0 39 -32.5 63.5t-98.5 50.5q-51 20 -88.5 35.5t-66.5 35.5q-45 31 -66.5 69t-21.5 90q0 23 7.5 47t20 47t30.5 44t39 37
q-23 20 -34.5 52t-11.5 64q0 44 14.5 83.5t41 69t62.5 46.5t79 17q69 0 112.5 -31t43.5 -83zM398 79q26 18 45.5 45t19.5 51q0 35 -30.5 60t-92.5 51q-63 26 -107 47.5t-72 41.5q-28 -17 -48 -41.5t-20 -59.5q0 -36 34 -62.5t99 -53.5q32 -14 56 -23.5t43.5 -18t36.5 -17
t36 -20.5z" />
    <glyph glyph-name="paragraph" unicode="&#xb6;" horiz-adv-x="620" 
d="M543 704v-18h-76v-917h76v-18h-166v935h-72v-935h-167v18h77v517q-90 0 -135.5 55.5t-45.5 158.5q0 57 13.5 96t40 63t66 34.5t90.5 10.5h299zM215 678q-21 -5 -38 -15.5t-29 -31.5t-18 -53t-6 -80q0 -87 23 -130.5t68 -57.5v368z" />
    <glyph glyph-name="brokenbar" unicode="&#xa6;" horiz-adv-x="222" 
d="M153 675v-350h-84v350h84zM153 175v-350h-84v350h84z" />
    <glyph glyph-name="copyright" unicode="&#xa9;" horiz-adv-x="800" 
d="M768 352q0 -74 -28.5 -141t-78 -117.5t-116.5 -80t-145 -29.5q-77 0 -144 29t-116.5 79.5t-78.5 117.5t-29 142t28.5 142t78.5 117.5t117 79.5t144 29q78 0 145 -29.5t116.5 -80t78 -117t28.5 -141.5zM400 62q63 0 115 23t89.5 62.5t58.5 92.5t21 112q0 60 -21 113
t-59 92t-90 62t-115 23q-62 0 -113.5 -22.5t-89.5 -62t-59 -92.5t-21 -113t21 -113t59 -92t90 -62t114 -23zM557 448h-24q-9 44 -35 67t-71 23q-63 0 -94.5 -47.5t-31.5 -125.5q0 -91 32 -140t96 -49q48 0 77.5 26.5t44.5 65.5h23l-17 -79q-1 -9 -26 -17q-19 -7 -50.5 -13.5
t-60.5 -6.5q-105 0 -163 53.5t-58 153.5q0 40 14.5 77t43.5 65t71 44.5t98 16.5q29 0 54 -4t45 -12q15 -6 23.5 -10t8.5 -14v-74z" />
    <glyph glyph-name="registered" unicode="&#xae;" horiz-adv-x="800" 
d="M768 352q0 -74 -28.5 -141t-78 -117.5t-116.5 -80t-145 -29.5q-77 0 -144 29t-117 79.5t-78.5 117.5t-28.5 142t28.5 142t78.5 117.5t117 79.5t144 29q78 0 145 -29.5t116.5 -80t78 -117t28.5 -141.5zM400 62q63 0 115 23t89.5 62.5t58.5 92.5t21 112q0 60 -21 113
t-59 92t-90 62t-115 23q-61 0 -113 -22.5t-89.5 -62t-59 -92.5t-21.5 -113t21 -113t59 -92t90 -62t114 -23zM397 550q78 0 114.5 -23.5t36.5 -75.5q0 -36 -24 -65t-61 -41q31 -50 50.5 -81.5t33 -50t24 -27t22.5 -11.5v-12h-85q-5 0 -15 9.5t-15 17.5q-14 23 -36.5 62.5
t-45.5 79.5h-35v-110q0 -14 1.5 -21.5t6 -11.5t13.5 -5.5t24 -2.5v-18h-176v18q32 2 39.5 9t7.5 33v267q0 27 -8.5 33.5t-38.5 8.5v18h167zM361 356h32q11 0 22.5 4t21 14t15.5 27.5t6 45.5q0 16 -2.5 30t-10 25t-20 17.5t-32.5 6.5h-32v-170z" />
    <glyph glyph-name="trademark" unicode="&#x2122;" horiz-adv-x="1000" 
d="M373 704v-88h-24q-6 27 -20.5 45.5t-46.5 18.5h-45v-307q0 -23 7.5 -36t24.5 -13h20v-24h-194v24h21q12 0 21.5 10.5t9.5 35.5v310h-45q-32 0 -46.5 -18.5t-20.5 -45.5h-24v88h362zM552 704l142 -289l151 289h115v-24h-17q-18 0 -27.5 -13.5t-9.5 -31.5v-266
q0 -26 8 -35.5t33 -9.5h10v-24h-191v24h13q21 0 29 10t8 34v222h-2l-147 -291h-13l-140 291h-2v-201q0 -30 9 -47.5t30 -17.5h13v-24h-133v24h14q22 0 29.5 18.5t7.5 47.5v239q-10 24 -28.5 37.5t-40.5 13.5v24h139z" />
    <glyph glyph-name="currency" unicode="&#xa4;" 
d="M132 549q31 24 69 37.5t80 13.5t78.5 -12.5t67.5 -35.5l54 54l52 -52l-54 -54q23 -30 36.5 -68t13.5 -80q0 -43 -13.5 -80.5t-37.5 -68.5l54 -54l-52 -52l-54 55q-65 -48 -145 -48q-42 0 -79 13t-68 37l-59 -59l-52 53l58 58q-23 32 -35.5 68t-12.5 78t12.5 78.5
t34.5 66.5l-57 57l52 52zM281 188q34 0 63.5 12.5t52 35t35.5 52t13 64.5q0 34 -12.5 63.5t-35 52t-52.5 35.5t-65 13q-33 0 -63 -13t-52 -35t-35 -52t-13 -64q0 -33 12.5 -63t35 -52.5t52 -35.5t64.5 -13z" />
    <glyph glyph-name="Euro" unicode="&#x20ac;" 
d="M512 566h-24q-8 51 -38.5 73.5t-76.5 22.5q-69 0 -103.5 -58t-43.5 -179h234l-18 -45h-218v-63h192l-18 -46h-173q7 -112 45 -171t104 -59q42 0 74 22t40 73h24l-7 -90q-20 -23 -57 -38t-105 -15q-122 0 -183 71t-73 207h-69l18 46h45q-1 8 -1 15.5v15.5v16t1 16h-63
l18 45h48q16 150 79 218.5t179 68.5q54 0 94.5 -11.5t68.5 -40.5z" />
    <glyph glyph-name="cent" unicode="&#xa2;" 
d="M293 515h30v-63q36 -1 67 -9.5t54 -24t36.5 -36.5t13.5 -47q0 -29 -17 -49t-56 -20q-31 0 -48 19.5t-17 48.5q0 17 6 27.5t13 17t13 12t6 11.5q0 12 -18.5 22t-52.5 10v-425q31 0 59 10.5t50 29t36 44t18 54.5h18q-8 -69 -57 -111t-124 -44v-75h-30v76q-47 4 -87 22.5
t-69 48.5t-45.5 69.5t-16.5 84.5q0 40 16.5 78.5t45.5 70.5t69 54t87 28v66zM293 431q-33 -8 -50.5 -37.5t-17.5 -90.5v-150q0 -59 16.5 -95.5t51.5 -44.5v418z" />
    <glyph glyph-name="sterling" unicode="&#xa3;" 
d="M500 565q0 -36 -19.5 -60t-59.5 -24q-28 0 -45.5 18.5t-17.5 46.5q0 25 15.5 46t44.5 21l25 -2q6 0 10.5 3t4.5 9q0 11 -9.5 22.5t-25 21t-36.5 15.5t-44 6q-52 0 -84 -35.5t-32 -90.5q0 -32 8.5 -69t18.5 -70.5t18.5 -59.5t9.5 -35h134v-30h-128q1 -4 1.5 -15t0.5 -15
q0 -34 -8 -67t-20 -65q38 -6 76.5 -15t91.5 -9q36 0 54 19.5t21 55.5h18q-5 -96 -44.5 -145.5t-105.5 -49.5q-15 0 -30 2.5t-32 9.5t-39.5 20t-52.5 35q-15 -20 -27.5 -33t-24.5 -20.5t-25.5 -10.5t-29.5 -3q-13 0 -25.5 5.5t-22.5 14.5t-16.5 21.5t-6.5 27.5q0 39 24 66.5
t69 27.5q23 0 42.5 -4.5t39.5 -6.5q-8 39 -30 77.5t-40 76.5h-104v30h92q-17 38 -28 75t-11 82q0 55 17 97.5t47.5 71.5t72 43.5t91.5 14.5q39 0 71.5 -11.5t56 -31.5t36.5 -46.5t13 -57.5zM117 10q29 0 47.5 19.5t31.5 45.5q-17 13 -36 22.5t-41 9.5q-19 0 -33.5 -14
t-14.5 -34t12 -34.5t34 -14.5z" />
    <glyph glyph-name="florin" unicode="&#x192;" 
d="M535 631q0 -27 -16.5 -46t-42.5 -19q-23 0 -39 15.5t-16 36.5q0 25 20 40q19 16 19 19q0 11 -7 14t-16 3q-34 0 -53.5 -40t-25.5 -127q-3 -42 -5.5 -85t-4.5 -85h118v-30h-118q-3 -63 -7 -112.5t-9 -89.5t-11 -71.5t-12 -57.5q-13 -54 -33.5 -93.5t-49.5 -70.5
q-59 -63 -123 -63q-35 0 -58.5 20.5t-23.5 49.5q0 27 15 43.5t41 16.5q21 0 36.5 -12t15.5 -35q0 -12 -4 -19.5t-9.5 -13l-9.5 -9.5t-4 -9q0 -14 14 -14q24 0 43 29t21 83l18 428h-119v30h119q2 75 22.5 140t51.5 113q34 52 77 77t91 25q39 0 67 -23t28 -58z" />
    <glyph glyph-name="yen" unicode="&#xa5;" 
d="M244 704v-18h-68l165 -376h2l110 258q15 35 19 54t4 33q0 17 -14.5 24t-37.5 7h-18v18h180v-18h-11q-29 0 -49 -23.5t-45 -80.5l-119 -272h140v-24h-143v-84h143v-24h-143v-160h89v-18h-310v18h89v160h-143v24h143v59l-12 25h-131v24h120l-168 376h-66v18h274z" />
    <glyph glyph-name="ordfeminine" unicode="&#xaa;" horiz-adv-x="361" 
d="M296 458q0 -5 2.5 -12.5t9.5 -7.5q10 0 14.5 10.5t5.5 24.5h18q0 -27 -18 -43t-50 -16q-54 0 -72 38q-9 -17 -35 -27.5t-53 -10.5q-45 0 -74 17t-29 56q0 41 28.5 63.5t82.5 27.5l74 7v49q0 29 -8.5 44.5t-42.5 15.5h-19.5t-19 -1.5t-14 -4t-5.5 -7.5q0 -4 5.5 -5.5
t11.5 -4t11.5 -8t5.5 -17.5q0 -16 -11 -26t-30 -10q-22 0 -32.5 12t-10.5 30q0 29 27.5 44.5t85.5 15.5q69 0 105.5 -21t36.5 -60v-173zM155 432q19 0 32 18.5t13 44.5v69q-8 0 -14.5 -0.5t-13.5 -1.5q-21 -3 -33 -9.5t-18.5 -15t-8 -19.5t-1.5 -24q0 -38 11 -50t33 -12z
" />
    <glyph glyph-name="ordmasculine" unicode="&#xba;" horiz-adv-x="361" 
d="M335 563q0 -34 -12 -61.5t-32.5 -47t-48.5 -30t-61 -10.5q-32 0 -60.5 10.5t-49.5 30t-33 47t-12 61.5t12 61.5t33 47t49.5 30t60.5 10.5q33 0 61 -10.5t49 -30t32.5 -47t11.5 -61.5zM227 634q0 32 -13 46t-33 14t-33.5 -14t-13.5 -40v-149q0 -28 12 -43.5t35 -15.5
q21 0 33.5 14.5t12.5 38.5v149z" />
    <glyph glyph-name="uni00B9" unicode="&#xb9;" horiz-adv-x="361" 
d="M251 706v-402h55v-18h-220v18h63v298q0 5 -2.5 12.5t-10.5 7.5q-10 0 -17 -2t-16 -6t-23 -11t-36 -17l-6 21q60 26 102 52.5t61 46.5h50z" />
    <glyph glyph-name="uni00B2" unicode="&#xb2;" horiz-adv-x="361" 
d="M328 582q0 -49 -24.5 -80t-75.5 -56q-47 -23 -74.5 -38t-47.5 -38h199l11 53h18q-9 -34 -12 -68t-5 -69h-299q20 40 51 74.5t75 71.5q42 35 65 68.5t23 81.5q0 63 -21.5 87.5t-66.5 24.5q-35 0 -61 -16.5t-26 -42.5q0 -10 3.5 -11.5t8.5 -1.5q8 0 11 1t9 1q20 0 30 -11.5
t10 -31.5t-14 -30.5t-35 -10.5q-30 0 -44.5 20t-14.5 47q0 46 37.5 75.5t97.5 29.5q38 0 69.5 -10t54.5 -27t35.5 -41t12.5 -52z" />
    <glyph glyph-name="uni00B3" unicode="&#xb3;" horiz-adv-x="361" 
d="M321 614q0 -29 -15 -46.5t-36.5 -27t-44 -13.5t-37.5 -5v-1q66 0 107 -30.5t41 -84.5q0 -60 -47.5 -93t-125.5 -33q-138 0 -138 87q0 23 15.5 40t39.5 17q22 0 33 -13t11 -34q0 -23 -13.5 -33t-26.5 -10h-6q-11 0 -11 -9q0 -12 19 -19.5t65 -7.5q23 0 43.5 6t31.5 25
q7 11 10.5 27.5t3.5 52.5q0 28 -4 47.5t-15.5 31.5t-31.5 17t-52 5h-43v18h44q31 0 49 8.5t26 21.5t10 29.5t2 32.5q0 35 -13.5 54.5t-48.5 19.5q-31 0 -51.5 -7.5t-20.5 -19.5q0 -7 6 -8t15 -1q11 0 23 -9t12 -31q0 -20 -13.5 -32t-33.5 -12q-26 0 -37.5 15.5t-11.5 35.5
q0 21 10 37t27 27.5t39 17t47 5.5q32 0 62.5 -8t51.5 -25q15 -12 24 -25.5t9 -39.5z" />
    <glyph glyph-name="onequarter" unicode="&#xbc;" horiz-adv-x="834" 
d="M742 420v-239h49v-72h-49v-91h54v-18h-212v18h56v91h-174v45l212 266h64zM638 336l-123 -155h125v155h-2zM230 706v-402h55v-18h-220v18h63v298q0 5 -2.5 12.5t-10.5 7.5q-10 0 -17 -2t-16 -6t-23 -11t-36 -17l-6 21q60 26 102 52.5t61 46.5h50zM645 720h45l-463 -736
h-45z" />
    <glyph glyph-name="onehalf" unicode="&#xbd;" horiz-adv-x="834" 
d="M231 706v-402h55v-18h-220v18h63v298q0 5 -2.5 12.5t-10.5 7.5q-10 0 -17 -2t-16 -6t-23 -11t-36 -17l-6 21q60 26 102 52.5t61 46.5h50zM605 720h45l-463 -736h-45zM790 297q0 -49 -24.5 -80t-75.5 -56q-47 -23 -74.5 -38t-47.5 -38h199l11 53h18q-9 -34 -12 -68t-5 -69
h-299q20 40 51 74.5t75 71.5q42 35 65 68.5t23 81.5q0 63 -21.5 87.5t-66.5 24.5q-35 0 -61 -16.5t-26 -42.5q0 -10 3.5 -11.5t8.5 -1.5q8 0 11 1t9 1q20 0 30 -11.5t10 -31.5t-14 -30.5t-35 -10.5q-30 0 -44.5 20t-14.5 47q0 46 37.5 75.5t97.5 29.5q38 0 69.5 -10
t54.5 -27t35.5 -41t12.5 -52z" />
    <glyph glyph-name="threequarters" unicode="&#xbe;" horiz-adv-x="834" 
d="M742 420v-239h49v-72h-49v-91h54v-18h-212v18h56v91h-174v45l212 266h64zM638 336l-123 -155h125v155h-2zM334 614q0 -29 -15 -46.5t-36.5 -27t-44 -13.5t-37.5 -5v-1q66 0 107 -30.5t41 -84.5q0 -60 -47.5 -93t-125.5 -33q-138 0 -138 87q0 23 15.5 40t39.5 17
q22 0 33 -13t11 -34q0 -23 -13.5 -33t-26.5 -10h-6q-11 0 -11 -9q0 -12 19 -19.5t65 -7.5q23 0 43.5 6t31.5 25q7 11 10.5 27.5t3.5 52.5q0 28 -4 47.5t-15.5 31.5t-31.5 17t-52 5h-43v18h44q31 0 49 8.5t26 21.5t10 29.5t2 32.5q0 35 -13.5 54.5t-48.5 19.5
q-31 0 -51.5 -7.5t-20.5 -19.5q0 -7 6 -8t15 -1q11 0 23 -9t12 -31q0 -20 -13.5 -32t-33.5 -12q-26 0 -37.5 15.5t-11.5 35.5q0 21 10 37t27 27.5t39 17t47 5.5q32 0 62.5 -8t51.5 -25q15 -12 24 -25.5t9 -39.5zM656 720h45l-463 -736h-45z" />
    <glyph glyph-name="perthousand" unicode="&#x2030;" horiz-adv-x="1000" 
d="M542 720h45l-463 -736h-45zM306 528q0 -88 -38 -135.5t-107 -47.5t-107 47.5t-38 135.5t37 136t108 48q70 0 107.5 -48t37.5 -136zM216 588q0 51 -12.5 81.5t-42.5 30.5q-27 0 -41 -28t-14 -92v-108q0 -54 13 -84.5t42 -30.5q27 0 41 28t14 91v112zM653 175
q0 -88 -38 -135.5t-107 -47.5t-107 47.5t-38 135.5t37 136t108 48q70 0 107.5 -48t37.5 -136zM563 235q0 51 -12.5 81.5t-42.5 30.5q-27 0 -41 -28t-14 -92v-108q0 -54 13 -84.5t42 -30.5q27 0 41 28t14 91v112zM984 175q0 -88 -38 -135.5t-107 -47.5t-107 47.5t-38 135.5
t37 136t108 48q70 0 107.5 -48t37.5 -136zM894 235q0 51 -12.5 81.5t-42.5 30.5q-27 0 -41 -28t-14 -92v-108q0 -54 13 -84.5t42 -30.5q27 0 41 28t14 91v112z" />
    <glyph glyph-name="plusminus" unicode="&#xb1;" horiz-adv-x="600" 
d="M342 506v-149h211v-84h-211v-151h-84v151h-211v84h211v149h84zM553 84v-84h-506v84h506z" />
    <glyph glyph-name="multiply" unicode="&#xd7;" horiz-adv-x="600" 
d="M300 315l170 170l62 -62l-170 -170l170 -170l-62 -62l-170 170l-170 -170l-62 62l170 170l-170 170l62 62z" />
    <glyph glyph-name="divide" unicode="&#xf7;" horiz-adv-x="600" 
d="M368 460q0 -14 -6 -27t-15.5 -23t-22.5 -16t-28 -6q-14 0 -27 6t-23 15.5t-16 22.5t-6 28t6 28t16 22.5t23 15.5t27 6t27 -6t23 -15.5t16 -22.5t6 -28zM553 295v-84h-506v84h506zM368 46q0 -14 -6 -27t-15.5 -23t-22.5 -16t-28 -6q-14 0 -27 6t-23 15.5t-16 22.5t-6 28
t6 28t16 22.5t23 15.5t27 6t27 -6t23 -15.5t16 -22.5t6 -28z" />
    <glyph glyph-name="logicalnot" unicode="&#xac;" horiz-adv-x="600" 
d="M553 397v-287h-84v203h-422v84h506z" />
    <glyph glyph-name="uni00B5" unicode="&#xb5;" horiz-adv-x="611" 
d="M223 82q0 -20 15.5 -39t42.5 -19q23 0 42.5 13.5t34 34t22.5 44t8 44.5v262h-69v18h81q57 0 87 7t39 19v-448h69v-18h-207v84h-2q-11 -24 -28.5 -42t-39 -30t-44.5 -18t-44 -6q-23 0 -41 7q2 -67 6 -118t4 -83q0 -29 -16.5 -44t-44.5 -15q-61 0 -61 60q0 23 1 51.5
t2.5 55.5t3 50t1.5 37v433h-69v18h80q59 0 88.5 7t38.5 19v-384z" />
    <glyph glyph-name="degree" unicode="&#xb0;" horiz-adv-x="400" 
d="M343 569q0 -29 -11 -55t-30 -45.5t-45.5 -31t-56.5 -11.5t-56 11t-45.5 30.5t-30.5 45.5t-11 56t11 56.5t30.5 45.5t45.5 30t56 11t56.5 -11t45.5 -30.5t30 -45.5t11 -56zM200 474q40 0 67.5 26.5t27.5 68.5t-27 68.5t-69 26.5q-39 0 -66.5 -26.5t-27.5 -68.5t27 -68.5
t68 -26.5z" />
    <glyph glyph-name="uniE300" unicode="&#xe300;" horiz-adv-x="278" 
d="M168 746l-131 139q-11 12 -17.5 23.5t-6.5 16.5q0 11 8.5 18t29.5 7q18 0 25 -5t13 -14q5 -8 28 -55t64 -130h-13z" />
    <glyph glyph-name="uniE301" unicode="&#xe301;" horiz-adv-x="278" 
d="M265 925q0 -6 -7 -17.5t-16 -21.5l-132 -140h-13q40 81 61.5 125.5t27.5 54.5t12.5 17t27.5 7t30 -7t9 -18z" />
    <glyph glyph-name="uniE302" unicode="&#xe302;" horiz-adv-x="278" 
d="M176 950l102 -204h-14l-122 130l-128 -130h-14l108 204h68z" />
    <glyph glyph-name="uniE304" unicode="&#xe304;" horiz-adv-x="278" 
d="M297 904q-16 -60 -38.5 -87t-55.5 -27q-20 0 -41.5 5.5t-42.5 13.5q-23 8 -44 14.5t-40 6.5q-17 0 -25.5 -16t-10.5 -30h-18q17 61 38 89.5t54 28.5q14 0 32 -5.5t40 -13.5q26 -10 53.5 -18.5t46.5 -8.5q8 0 16.5 13t16.5 35h19z" />
    <glyph glyph-name="uniE305" unicode="&#xe305;" horiz-adv-x="278" 
d="M115 845q0 -26 -18.5 -44.5t-44.5 -18.5t-44.5 18.5t-18.5 44.5t18.5 44.5t44.5 18.5t44.5 -18.5t18.5 -44.5zM289 845q0 -26 -18.5 -44.5t-44.5 -18.5t-44.5 18.5t-18.5 44.5t18.5 44.5t44.5 18.5t44.5 -18.5t18.5 -44.5z" />
    <glyph glyph-name="uniE308" unicode="&#xe308;" horiz-adv-x="278" 
d="M247 878q0 -23 -8.5 -42.5t-23.5 -34t-34.5 -23t-41.5 -8.5q-23 0 -42.5 8.5t-34 23t-23 34t-8.5 42.5q0 22 8.5 41.5t23 34.5t34 23.5t42.5 8.5q22 0 42 -8.5t34.5 -23t23 -34.5t8.5 -42zM139 818q25 0 42.5 17.5t17.5 42.5t-17.5 42.5t-43.5 17.5q-24 0 -41.5 -17.5
t-17.5 -42.5t17.5 -42.5t42.5 -17.5z" />
    <glyph glyph-name="uniE303" unicode="&#xe303;" horiz-adv-x="278" 
d="M0 950h14l122 -130l128 130h14l-108 -204h-68z" />
    <glyph glyph-name="ring" unicode="&#x2da;" horiz-adv-x="278" 
d="M247 648q0 -23 -8.5 -42.5t-23.5 -34t-34.5 -23t-41.5 -8.5q-23 0 -42.5 8.5t-34 23t-23 34t-8.5 42.5q0 22 8.5 41.5t23 34.5t34 23.5t42.5 8.5q22 0 42 -8.5t34.5 -23t23 -34.5t8.5 -42zM139 588q25 0 42.5 17.5t17.5 42.5t-17.5 42.5t-43.5 17.5q-24 0 -41.5 -17.5
t-17.5 -42.5t17.5 -42.5t42.5 -17.5z" />
    <glyph glyph-name="caron" unicode="&#x2c7;" horiz-adv-x="278" 
d="M0 720h14l122 -130l128 130h14l-108 -204h-68z" />
    <glyph glyph-name="fraction" unicode="&#x2044;" horiz-adv-x="167" 
d="M297 720h45l-463 -736h-45z" />
    </font>
</defs>
</svg>
